<svg fill="none" xmlns="http://www.w3.org/2000/svg" viewBox="0 0 83 111"><g clip-path="url(#a)"><path fill-rule="evenodd" clip-rule="evenodd" d="M48.13.12v29.22a5.17 5.17 0 0 0 5.15 5.16H82.5v70.47c0 2.85-2.3 5.15-5.16 5.15H5.16A5.14 5.14 0 0 1 0 104.96V5.28C0 2.42 2.3.12 5.16.12h42.97Zm34.37 27.5v-1.3c0-1.36-.54-2.67-1.5-3.64L59.96 1.63a5.15 5.15 0 0 0-3.65-1.5H55v27.5h27.5ZM66.32 60.95l2.93 3.24v2.25c0 .1-.07.19-.17.21l-1.2.34a.23.23 0 0 0-.17.22l.08 4.61c0 .1-.06.19-.15.22l-2.75.94a.23.23 0 0 0-.14.27l.64 2.27v.13l-1.2 3.77c0 .02-.01.05-.03.07l-2.34 3a.23.23 0 0 0-.04.09l-1.42 5.62a.23.23 0 0 0 0 .13l2.16 6.38c.03.08 0 .17-.05.23l-1.86 1.99c-.1.1-.27.1-.35-.03l-1.89-2.68a.22.22 0 0 0-.07-.06l-4.37-2.6a.23.23 0 0 0-.17-.03l-6.6 1.65h-.1l-2.33-.48h-.13l-2.16.8a.23.23 0 0 0-.13.12l-1.17 2.93a.23.23 0 0 1-.2.14H39.4a.22.22 0 0 1-.16-.07l-3.07-3.31a.22.22 0 0 0-.15-.07l-1.94-.08a.22.22 0 0 1-.18-.1l-3.48-5.56a.23.23 0 0 0-.19-.1l-5.74-.17a.22.22 0 0 1-.13-.04l-9.27-6.97a.23.23 0 0 1-.1-.18v-2.16c0-.05-.01-.1-.04-.14l-1-1.3a.23.23 0 0 1-.04-.11L13.25 72a.22.22 0 0 1 .06-.2l.84-.91c.04-.05.06-.1.06-.16l-.08-2.32c0-.04.01-.08.03-.1l4.13-8.19c.05-.1.17-.14.27-.1l.43.13c.06.03 6.66 2.15 19.13 2.74 2.08.1 4.27.15 6.5.15h.31c.09 0 .16.05.2.12l1.17 2.25c.04.08.12.12.2.12h7.28c.1 0 .2.07.22.17l1.44 5.18c.01.05 0 .1 0 .14l-.48 1.26a.23.23 0 0 0 .4.22l4.98-6.44a.22.22 0 0 1 .08-.06l3.42-1.6a.23.23 0 0 0 .13-.2v-2.31c0-.1.05-.18.14-.21l1.96-.78a.23.23 0 0 1 .25.05Z" fill="#6B2200"/></g><defs><clipPath id="a"><path fill="#fff" d="M0 .12h82.5v110H0z"/></clipPath></defs></svg>