<svg xmlns="http://www.w3.org/2000/svg" width="74" height="40" fill="none"><g filter="url(#a)"><path fill="#E2AE61" d="M69.26 21.07c-.16 1.16-.28 2.32-.48 3.48-.74 4.46-2.55 8.37-6 11.43-3.53 3.13-7.7 4.26-12.34 3.98-4.37-.26-8.35-1.76-12.13-3.86-.39-.22-.69-.41-.3-.89 3.17-3.88 6.83-7.1 11.76-8.59 2.88-.86 5.86-.84 8.81-1.07a31.9 31.9 0 0 0 5.26-.82 8.96 8.96 0 0 0 4.63-3.17l.53-.6.26.11ZM.05 20.95c.23.2.37.29.47.41 2.01 2.58 4.73 3.8 7.92 4.06 2.54.22 5.09.3 7.63.55 4.19.43 7.83 2.2 10.95 4.98 1.4 1.26 2.64 2.72 3.96 4.08.42.43.42.77-.15 1.08-3.53 1.9-7.19 3.45-11.23 3.8-7.48.65-15.67-2.86-18.43-12.09-.6-2-.8-4.12-1.16-6.18-.03-.17.02-.35.04-.7ZM42.9 27.36c.07-1.3.28-2.45.17-3.57-.25-2.5-1.44-4.66-2.9-6.66a21.15 21.15 0 0 0-4.88-4.7c-.44-.32-.86-.43-1.34-.1A19.23 19.23 0 0 0 26.37 22a7.92 7.92 0 0 0-.22 4.32c.04.19.02.39-.03.6a15.37 15.37 0 0 1-2.16-4.36c-1-3.15-.57-6.17.86-9.08a26.25 26.25 0 0 1 8.7-10.1c.6-.42 1.19-.6 1.85-.14 4.41 3.13 7.85 7.02 9.67 12.21.95 2.74.82 5.42-.25 8.06-.52 1.3-1.23 2.51-1.9 3.86Z"/><path fill="#FAEEE0" d="M43.16 28.69c.21-.33.41-.66.64-.98 4.2-6.07 3.17-13.62-1.25-18.84-1.45-1.7-1.54-1.75-.33-3.64 1.1-1.71 2.4-3.29 3.61-4.92.26-.35.53-.4.84-.04 3.24 3.84 5.42 8.12 5.53 13.25.11 5.2-2.09 9.4-5.83 12.86-.96.89-2.01 1.67-3.02 2.5l-.19-.2ZM26.07 28.8c-4.54-2.87-7.8-6.64-8.86-12.02-.73-3.75-.08-7.3 1.52-10.73a25.13 25.13 0 0 1 3.6-5.6c.5-.6.59-.6 1.1 0 1.48 1.76 2.96 3.51 3.96 5.6.56 1.15.52 1.39-.36 2.33-4.89 5.22-6.11 13.53-1.31 19.87.13.18.24.37.35.56Z"/><path fill="#E2AE61" d="M48.05 26.36c.12-.13.22-.27.35-.39a14.65 14.65 0 0 0 4.69-11.58 3.24 3.24 0 0 1 1.3-2.87 26.3 26.3 0 0 1 8-4.34c.38-.13.68-.19.72.36.32 4.53-.44 8.76-3.4 12.39-2.49 3.07-5.8 4.89-9.52 6.03-.68.21-1.37.38-2.05.56l-.1-.16h.01ZM21.2 26.57c-4.3-1.03-8.13-2.65-11.09-5.84-3.17-3.42-4.29-7.58-4.15-12.14.04-1.7.06-1.7 1.66-1.1a25.1 25.1 0 0 1 7.47 4.34c.63.53.97 1.15.93 1.98a15.53 15.53 0 0 0 4.9 12.43l.27.33Z"/><path fill="#FAEEE0" d="M34.42 32.96c-.9-1.4-1.58-3.04-2.02-4.8a19.2 19.2 0 0 1 .47-11.19c.24-.7.6-1.4 1.06-2 .73-.97 1.69-.85 2.27.22a8.04 8.04 0 0 1 .87 5.38c-.46 2.46-1.2 4.88-1.74 7.33-.38 1.68-.61 3.4-.9 5.06ZM13.77 24.71c-2.7-.2-5.42-.15-8.02-1.02-1.99-.65-2.84-2.25-3.04-4.18-.16-1.53-.1-3.1-.13-4.64 0-.18.1-.37.19-.68.27.23.45.35.6.52 1.32 1.4 2.65 2.78 3.93 4.22 1.78 2 3.76 3.77 6.04 5.2.18.12.34.26.52.39l-.1.2ZM66.4 14.19c.08.28.15.4.14.54-.03 1.59.04 3.19-.13 4.77-.29 2.69-1.6 4.08-4.28 4.51-2.3.37-4.64.55-6.96.81l-.06-.16c.15-.12.29-.26.45-.36a31.34 31.34 0 0 0 7.35-6.6c.88-1.04 1.87-1.99 2.82-2.97.17-.17.38-.31.66-.54Z"/><path fill="#FAEEE0" d="M34.4 35.24c-3.02-2.5-5.89-5.13-6.46-9.24-.49-3.6.83-6.62 3.6-8.98.13-.1.28-.17.46-.28-.3 1.28-.61 2.5-.84 3.73a16.75 16.75 0 0 0 1.4 10.93l1.56 3.16.28.68ZM35.78 34.52a8.27 8.27 0 0 1-.04-4.08c.53-2.22 1.19-4.41 1.78-6.62.61-2.24.84-4.5.16-6.78-.08-.27-.06-.56-.08-.85l.18-.1c.31.34.67.65.93 1.03 1.47 2.12 1.65 4.46 1.18 6.91-.43 2.25-1.42 4.29-2.34 6.35-.6 1.35-1.16 2.72-1.77 4.14Z"/></g><defs><filter id="a" width="77.26" height="48" x="-4" y="0" color-interpolation-filters="sRGB" filterUnits="userSpaceOnUse"><feFlood flood-opacity="0" result="BackgroundImageFix"/><feColorMatrix in="SourceAlpha" result="hardAlpha" values="0 0 0 0 0 0 0 0 0 0 0 0 0 0 0 0 0 0 127 0"/><feOffset dy="4"/><feGaussianBlur stdDeviation="2"/><feComposite in2="hardAlpha" operator="out"/><feColorMatrix values="0 0 0 0 0 0 0 0 0 0 0 0 0 0 0 0 0 0 0.25 0"/><feBlend in2="BackgroundImageFix" result="effect1_dropShadow_259_1048"/><feBlend in="SourceGraphic" in2="effect1_dropShadow_259_1048" result="shape"/></filter></defs></svg>