<svg xmlns="http://www.w3.org/2000/svg" width="121" height="108" fill="none" viewBox="0 0 121 108"><path fill="#FAEEE0" d="M112.187 39.48c-.234 1.757-.419 3.523-.706 5.274-1.109 6.776-3.819 12.717-8.965 17.356-5.276 4.758-11.528 6.462-18.453 6.041-6.528-.398-12.474-2.666-18.127-5.86-.577-.326-1.026-.621-.441-1.345 4.739-5.9 10.195-10.787 17.576-13.036 4.302-1.31 8.747-1.283 13.162-1.635 2.641-.211 5.301-.579 7.867-1.234 2.819-.72 5.045-2.563 6.906-4.822.256-.31.532-.606.796-.908.128.057.256.11.385.168ZM8.094 39.314c.349.307.561.441.705.629 3.021 3.907 7.112 5.75 11.889 6.164 3.813.33 7.65.44 11.46.835 6.293.651 11.76 3.325 16.438 7.547 2.119 1.915 3.976 4.13 5.955 6.202.626.655.626 1.172-.235 1.64-5.3 2.88-10.781 5.24-16.862 5.77-11.23.976-23.523-4.345-27.667-18.355-.898-3.034-1.186-6.256-1.744-9.39-.045-.252.027-.524.057-1.045l.004.003ZM72.514 48.933c.112-1.952.424-3.683.263-5.365-.365-3.771-2.14-7.01-4.3-10.03-2.001-2.794-4.51-5.069-7.27-7.078-.653-.474-1.284-.63-1.99-.136-5.253 3.664-9.18 8.396-11.28 14.54-.72 2.104-.792 4.302-.323 6.497.06.281.038.581-.037.9-1.442-2.016-2.471-4.219-3.215-6.562-1.505-4.739-.848-9.28 1.277-13.666 3.004-6.202 7.349-11.245 12.944-15.198.893-.634 1.757-.911 2.745-.201 6.563 4.709 11.674 10.557 14.374 18.372 1.423 4.124 1.231 8.153-.365 12.125-.78 1.944-1.825 3.782-2.82 5.814l-.003-.012Z"/><path fill="#FAEEE0" d="M72.711 51.058c.315-.49.618-.99.952-1.471 6.315-9.117 4.764-20.451-1.877-28.298-2.166-2.559-2.306-2.627-.493-5.47 1.642-2.57 3.607-4.932 5.43-7.384.392-.523.786-.614 1.26-.053 4.866 5.758 8.143 12.19 8.306 19.893.167 7.82-3.14 14.113-8.757 19.318-1.441 1.334-3.027 2.513-4.544 3.76-.091-.098-.186-.197-.277-.292v-.003ZM47.027 51.35c-6.794-4.323-11.69-10.008-13.267-18.09-1.105-5.652-.121-11.008 2.277-16.162a37.84 37.84 0 0 1 5.376-8.424c.76-.904.893-.896 1.657.008 2.225 2.636 4.434 5.283 5.944 8.424.832 1.732.779 2.085-.545 3.506-7.328 7.85-9.16 20.361-1.968 29.91.197.261.356.554.534.831l-.008-.004Z"/><path fill="#FAEEE0" d="M80.282 47.508c.175-.196.336-.406.526-.582 5.047-4.678 7.287-10.497 7.093-17.225-.054-1.832.519-3.13 1.954-4.272 3.638-2.894 7.71-4.952 12.104-6.457.577-.2 1.039-.282 1.096.533.477 6.731-.676 13.03-5.134 18.426-3.776 4.569-8.768 7.28-14.403 8.98-1.026.308-2.068.555-3.107.83a496.41 496.41 0 0 0-.137-.237l.008.004ZM39.931 47.737c-6.453-1.52-12.183-3.935-16.624-8.676-4.763-5.087-6.438-11.26-6.241-18.042.072-2.532.09-2.536 2.505-1.632 4.096 1.53 7.859 3.63 11.205 6.444.94.788 1.448 1.707 1.39 2.952-.329 7.243 2.074 13.425 7.371 18.474.099.093.17.21.39.483l.004-.003ZM59.685 57.374c-1.388-2.09-2.454-4.527-3.14-7.124-1.478-5.61-1.254-11.16.725-16.624.38-1.053.941-2.095 1.647-2.98 1.14-1.427 2.627-1.247 3.52.33 1.416 2.508 1.906 5.247 1.365 7.99-.722 3.662-1.87 7.245-2.713 10.887-.58 2.5-.949 5.04-1.404 7.521ZM28.952 45.332c-4.163-.32-8.385-.246-12.415-1.575-3.076-1.013-4.394-3.48-4.706-6.458-.25-2.37-.16-4.779-.2-7.172-.004-.285.157-.573.293-1.052.419.354.704.549.935.799 2.036 2.167 4.104 4.307 6.082 6.524 2.76 3.099 5.825 5.823 9.347 8.034.281.179.54.397.805.6-.047.101-.094.199-.14.3ZM107.752 29.075c.119.431.224.628.22.825-.045 2.434.056 4.883-.198 7.294-.428 4.107-2.372 6.24-6.32 6.896-3.396.563-6.837.84-10.26 1.242-.026-.085-.056-.17-.082-.255.216-.18.417-.39.652-.54 4.205-2.688 7.676-6.21 10.852-10.09 1.3-1.589 2.76-3.035 4.16-4.536.25-.266.555-.478.976-.837Z"/><path fill="#FAEEE0" d="M59.802 60.987c-4.438-3.732-8.654-7.682-9.484-13.835-.727-5.398 1.205-9.908 5.29-13.443.175-.151.393-.25.66-.42-.43 1.923-.897 3.74-1.234 5.587-1.046 5.67-.527 11.15 2.05 16.359.779 1.575 1.539 3.154 2.302 4.736.16.329.278.676.416 1.016ZM62.005 59.783c-.532-2.088-.507-4.146-.058-6.136.754-3.335 1.7-6.625 2.558-9.938.873-3.37 1.203-6.754.228-10.176-.116-.406-.083-.853-.12-1.285.088-.053.175-.11.262-.163.449.52.96.993 1.336 1.562 2.109 3.176 2.362 6.704 1.689 10.377-.62 3.373-2.036 6.44-3.359 9.543-.858 2.024-1.666 4.075-2.536 6.212v.004ZM33.91 80.66c.64.052 1.28.19 1.911.13.986-.096 1.462.207 1.825 1.193 1.367 3.727 2.854 7.411 4.298 11.104.147.38.311.761.562 1.358 1.367-3.338 2.638-6.46 3.918-9.59.328-.814.674-1.618 1.003-2.43.49-1.206 1.43-1.705 2.82-1.497-1.341 3.295-2.682 6.573-4.013 9.841-.969 2.37-2.007 4.714-2.872 7.118-.432 1.176-1.029 1.686-2.343 1.254-1.808-4.644-3.641-9.383-5.5-14.105-.493-1.254-1.073-2.465-1.609-3.702v-.691.017ZM56.986 84.827c-1.842 4.471-3.64 8.726-5.336 13.024-.389.995-.89 1.323-1.972.96.122-.355.234-.71.372-1.046 2.154-5.267 4.29-10.534 6.478-15.792.164-.397.614-.795 1.02-.951.71-.26.848.39 1.046.89 2.102 5.406 4.203 10.82 6.305 16.224.078.208.138.433.26.805-.779 0-1.505.095-2.18-.043-.32-.07-.666-.537-.813-.9-1.626-4.082-3.208-8.172-4.808-12.263-.095-.25-.208-.484-.38-.908h.008ZM83.832 83.548c-.544.64-1.046 1.237-1.669 1.963-.19-.259-.328-.484-.501-.683-3.598-4.099-9.496-3.018-11.476 2.102-1.617 4.177.44 9.063 4.35 10.36 3.987 1.323 8.328-1.686 8.717-6.175h-7.36v-2.023H86.16c.821 3.943-2.162 8.622-6.408 10.092-4.601 1.6-9.712-.467-11.926-4.817-2.205-4.333-.839-9.66 3.191-12.445 4.021-2.776 9.452-2.127 12.825 1.626h-.008Z"/></svg>