<svg xmlns="http://www.w3.org/2000/svg" width="211" height="245" fill="none" viewBox="0 0 211 245"><path fill="#FAEEE0" d="M210.15 63.3c-.47 3.54-.85 7.09-1.42 10.6-2.23 13.63-7.68 25.58-18.03 34.9-10.61 9.57-23.18 13-37.1 12.15-13.13-.8-25.1-5.36-36.46-11.78-1.16-.66-2.06-1.25-.89-2.7 9.53-11.87 20.5-21.7 35.35-26.22 8.65-2.63 17.59-2.58 26.46-3.29a94.5 94.5 0 0 0 15.82-2.48c5.67-1.44 10.15-5.15 13.89-9.7.52-.62 1.07-1.21 1.6-1.82l.78.34ZM.83 62.97c.7.61 1.13.88 1.42 1.26 6.07 7.86 14.3 11.56 23.9 12.4 7.67.66 15.39.88 23.05 1.68 12.65 1.3 23.65 6.68 33.05 15.17 4.27 3.85 8 8.3 11.98 12.47 1.26 1.32 1.26 2.36-.47 3.3-10.66 5.8-21.68 10.54-33.91 11.6-22.58 1.97-47.3-8.73-55.63-36.9C2.4 77.84 1.83 71.36.7 65.05c-.1-.5.05-1.05.11-2.1h.01ZM130.37 82.31c.23-3.92.85-7.4.53-10.79-.74-7.58-4.3-14.1-8.65-20.17-4.02-5.62-9.07-10.19-14.62-14.23-1.31-.95-2.58-1.27-4-.27-10.56 7.36-18.46 16.88-22.68 29.23a24.22 24.22 0 0 0-.65 13.07c.12.56.08 1.17-.08 1.8a46.71 46.71 0 0 1-6.46-13.19c-3.03-9.53-1.7-18.66 2.57-27.48a79.16 79.16 0 0 1 26.03-30.56c1.8-1.27 3.53-1.83 5.52-.4 13.2 9.47 23.47 21.23 28.9 36.94 2.86 8.3 2.48 16.4-.73 24.38-1.57 3.91-3.67 7.6-5.67 11.7l-.01-.03Z"/><path fill="#FAEEE0" d="M130.77 86.58c.63-.98 1.24-1.99 1.91-2.96 12.7-18.33 9.58-41.12-3.78-56.9-4.35-5.14-4.63-5.28-.99-11 3.3-5.17 7.26-9.91 10.93-14.85.78-1.05 1.57-1.23 2.53-.1 9.78 11.58 16.37 24.51 16.7 40 .34 15.73-6.31 28.38-17.61 38.84-2.9 2.69-6.09 5.06-9.14 7.57l-.55-.6ZM79.12 87.17c-13.66-8.7-23.5-20.13-26.68-36.38-2.22-11.36-.24-22.13 4.58-32.5A76.08 76.08 0 0 1 67.83 1.37c1.53-1.82 1.8-1.8 3.33.01 4.48 5.3 8.92 10.62 11.95 16.94 1.68 3.48 1.57 4.2-1.1 7.05-14.73 15.79-18.4 40.94-3.95 60.14.4.53.72 1.12 1.08 1.68l-.02-.01Z"/><path fill="#FAEEE0" d="M145.99 79.44c.35-.39.67-.81 1.06-1.17 10.15-9.4 14.65-21.1 14.26-34.63-.1-3.69 1.04-6.3 3.93-8.6 7.31-5.81 15.5-9.95 24.34-12.98 1.16-.4 2.09-.56 2.2 1.07.96 13.54-1.36 26.2-10.32 37.06-7.6 9.18-17.63 14.63-28.96 18.05-2.07.62-4.16 1.12-6.25 1.67l-.28-.47h.02ZM64.85 79.9c-12.98-3.05-24.5-7.9-33.43-17.44-9.58-10.23-12.94-22.64-12.55-36.28.15-5.1.19-5.1 5.04-3.28a75.92 75.92 0 0 1 22.53 12.96c1.9 1.58 2.91 3.43 2.8 5.93-.66 14.57 4.17 27 14.82 37.15.2.19.34.42.78.97h.01ZM104.57 99.28a48.33 48.33 0 0 1-6.31-14.32 54.93 54.93 0 0 1 1.46-33.43c.76-2.12 1.89-4.21 3.3-6 2.3-2.86 5.29-2.5 7.09.67a23.12 23.12 0 0 1 2.74 16.07c-1.45 7.36-3.76 14.57-5.45 21.89-1.17 5.03-1.91 10.14-2.83 15.12ZM42.77 75.07c-8.37-.64-16.86-.5-24.96-3.17-6.19-2.04-8.84-7-9.46-12.98-.5-4.77-.33-9.61-.4-14.43-.01-.57.3-1.15.58-2.11.85.71 1.42 1.1 1.88 1.6 4.1 4.36 8.26 8.66 12.23 13.12a87.4 87.4 0 0 0 18.8 16.16c.56.36 1.08.8 1.62 1.2l-.29.6ZM201.23 42.38c.24.87.45 1.26.44 1.66-.09 4.9.11 9.82-.4 14.66-.86 8.26-4.77 12.55-12.7 13.87-6.83 1.13-13.75 1.7-20.64 2.5l-.16-.51c.43-.37.84-.79 1.3-1.09 8.46-5.4 15.44-12.49 21.83-20.29 2.61-3.2 5.55-6.1 8.37-9.12.5-.53 1.11-.96 1.96-1.68Z"/><path fill="#FAEEE0" d="M104.8 106.55c-8.92-7.5-17.4-15.45-19.06-27.82-1.46-10.86 2.42-19.92 10.64-27.03.35-.3.79-.5 1.32-.85-.86 3.87-1.8 7.52-2.48 11.24-2.1 11.4-1.06 22.42 4.12 32.9 1.57 3.16 3.1 6.33 4.63 9.52.32.66.56 1.36.84 2.04ZM109.24 104.13a26.09 26.09 0 0 1-.12-12.34c1.52-6.7 3.42-13.32 5.14-19.98 1.76-6.78 2.42-13.59.46-20.47-.23-.81-.16-1.71-.24-2.58.18-.1.35-.22.53-.33.9 1.05 1.93 2 2.69 3.14 4.24 6.39 4.75 13.48 3.4 20.87-1.25 6.78-4.1 12.95-6.76 19.19-1.73 4.07-3.35 8.2-5.1 12.49ZM47.24 151.08c.74.06 1.5.22 2.23.15 1.15-.11 1.71.25 2.13 1.4 1.6 4.34 3.33 8.63 5.02 12.94l.66 1.6 4.58-11.19 1.17-2.83c.58-1.4 1.68-1.99 3.3-1.74l-4.7 11.47c-1.12 2.77-2.33 5.5-3.35 8.3-.5 1.37-1.2 1.96-2.74 1.47-2.1-5.42-4.25-10.94-6.42-16.45-.58-1.45-1.25-2.88-1.88-4.32v-.8ZM129.62 151.59h11.57v1.59h-8.63v7.91h6.32v1.71h-6.33v7.87h8.64l.1 1.7h-11.66V151.6h-.01ZM75.32 156c-2.15 5.21-4.25 10.17-6.23 15.18-.47 1.16-1.04 1.54-2.3 1.12.14-.42.26-.83.43-1.23 2.51-6.13 5.02-12.28 7.58-18.4.2-.46.71-.93 1.19-1.1.83-.32 1 .45 1.22 1.03l7.37 18.91c.1.25.16.5.3.94-.9 0-1.75.11-2.54-.05-.38-.08-.78-.63-.95-1.05-1.9-4.76-3.75-9.53-5.62-14.3l-.45-1.05ZM157.56 172.46h-2.93c0-1.7-.15-3.4.03-5.05.36-3.36-.53-6.25-2.51-8.98-1.55-2.15-2.77-4.55-4.27-7.04 1.11 0 2-.09 2.85.03.39.06.83.46 1.05.82 1.65 2.65 3.24 5.32 4.97 8.17 1.46-2.69 2.9-5.17 4.2-7.74.58-1.17 1.3-1.56 2.64-1.14-1.3 2.4-2.48 4.85-3.92 7.14a12.9 12.9 0 0 0-2.16 8.46c.17 1.72.03 3.47.03 5.34l.02-.01ZM110.73 172.4v-20.79h2.9v19.08h8.74v1.72h-11.65ZM94.83 170.7h8.73v1.7h-11.6v-20.8h2.87v19.1ZM55.23 197.21c2.23.96 3.54 2.5 3.85 4.74a5.66 5.66 0 0 1-5.51 6.35c-2.99.1-6 .02-9.1.02v-20.58c2.75 0 5.6-.38 8.31.1 3.83.67 5.35 5.2 3.17 8.4l-.71.97Zm-7.88 9.28h4.48c.31 0 .63 0 .94-.03 2.22-.3 3.7-1.87 3.67-3.86a3.83 3.83 0 0 0-3.45-3.77c-1.86-.14-3.72-.03-5.63-.03v7.7-.01Zm.01-9.55c1.1 0 2.11.03 3.13 0a3.87 3.87 0 0 0 3.78-3.44 3.7 3.7 0 0 0-2.9-4.05c-1.28-.25-2.63-.2-4-.27v7.77ZM76.35 186.81c5.98 0 10.83 4.78 10.89 10.7a10.88 10.88 0 0 1-10.91 10.84c-5.96 0-10.84-4.81-10.89-10.73a10.84 10.84 0 0 1 10.91-10.8Zm-.01 19.83c.66-.1 1.33-.14 1.97-.32 6.12-1.71 8.32-9.8 4.06-14.88a7.8 7.8 0 0 0-12.05-.01 9.67 9.67 0 0 0-2.22 5.72c-.36 4.97 3.52 9.42 8.24 9.5ZM169.34 197.57c0 5.95-4.92 10.8-10.95 10.77a10.82 10.82 0 0 1-10.8-10.78c0-5.99 4.86-10.77 10.94-10.75a10.81 10.81 0 0 1 10.81 10.76Zm-19.19.04c.13.83.18 1.67.4 2.47.94 3.26 2.93 5.62 6.36 6.34 3.16.67 5.82-.47 7.8-3a9.58 9.58 0 0 0 .37-11.17 7.64 7.64 0 0 0-5.67-3.6c-5.06-.54-9.17 3.5-9.26 8.96ZM105.8 208.2c-.67-6.36-3.76-10.01-7.86-9.28v9.36H95.1v-20.66c2.6 0 5.16-.1 7.7.03 2.17.1 4.14 2.03 4.65 4.2.53 2.3-.47 4.7-2.51 5.98-.37.23-.77.43-1.03.57 1.11 1.46 2.36 2.83 3.3 4.37a8.22 8.22 0 0 1 1.06 5.43h-2.47Zm-7.78-19v7.74c1.13 0 2.2.04 3.26 0a3.76 3.76 0 0 0 3.59-3.32c.2-2.03-.92-3.77-2.9-4.15-1.24-.24-2.54-.18-3.95-.27ZM190.34 203.52v-15.89h1.64v20.56c-1.2.43-1.9-.02-2.56-1.01-3.15-4.68-6.37-9.3-9.79-14.27v15.35h-1.78v-1.44c0-4.78-.04-9.57.03-14.35.02-1.48-.18-2.8-1.2-3.92-.23-.24-.37-.57-.65-1.02 1.02 0 1.88-.1 2.69.04.44.08.91.48 1.18.86 3.15 4.52 6.26 9.06 9.38 13.6l1.07 1.48v.01ZM37.91 208.54c-2.46.15-4.11-.85-4.96-3l-4.43-11.23c-.15-.4-.33-.78-.6-1.43l-.55 1.22-5.25 12.6c-.57 1.39-1.67 1.98-3.28 1.78l4.59-11.17 3.74-9.07c.26-.66.5-1.12 1.4-1.1.84 0 1.15.34 1.42 1.05 2.53 6.5 5.09 13 7.64 19.5l.29.84v.01ZM123.53 208.27h-2.9V189.3h-6.86v-1.62h16.59v1.58h-6.83v19ZM140.37 208.25h-2.75v-20.64h2.75v20.64ZM67.4 226.36l-1.92 2.24c-.21-.3-.37-.55-.56-.78-4.13-4.67-10.9-3.44-13.17 2.4-1.85 4.76.5 10.34 4.99 11.8 4.57 1.51 9.55-1.92 10-7.04H58.3v-2.3h11.77c.94 4.5-2.48 9.83-7.36 11.5a11.28 11.28 0 0 1-13.69-5.49 11.1 11.1 0 0 1 3.66-14.2 11.2 11.2 0 0 1 14.72 1.86ZM96.3 233.68c0-6.03 4.84-10.81 10.93-10.8a10.86 10.86 0 0 1 10.83 10.8 10.9 10.9 0 0 1-10.96 10.8 10.82 10.82 0 0 1-10.8-10.8Zm2.65-.08c-.04 5.47 4.02 9.52 9.09 9.07 3.65-.32 6.61-3.48 7.29-7.77.81-5.19-3.1-10.16-8.05-10.24-4.6-.07-8.31 3.9-8.34 8.94ZM77.1 223.69c2.61 0 5.16-.1 7.7.03 2.15.1 3.99 1.88 4.59 4.1a5.4 5.4 0 0 1-2.01 5.8c-.5.37-1.05.65-1.72 1.06 3.18 2.43 4.82 5.59 4.72 9.66H87.8c-.05-3.3-.99-6.22-3.73-8.3-1.17-.88-2.45-1.47-4.12-1.07v9.44H77.1V223.7Zm2.91 9.36c1.12 0 2.15.02 3.17 0a3.84 3.84 0 0 0 3.73-3.52 3.7 3.7 0 0 0-3-4c-1.24-.22-2.55-.17-3.9-.24v7.76ZM138.93 223.72h2.84c.03.35.08.7.08 1.03 0 3.78.05 7.56-.02 11.34-.09 4.91-3.73 8.47-8.5 8.41-4.62-.05-8.2-3.8-8.22-8.59v-12.17h2.93v13.24c.01 3.34 2.24 5.7 5.38 5.74 3.17.03 5.46-2.27 5.5-5.62.04-3.96 0-7.92 0-11.87v-1.5ZM153.38 244.45h-2.85v-20.72c2.7 0 5.39-.2 8.03.06 2.57.25 4.44 2.78 4.45 5.4 0 2.67-1.8 5-4.43 5.43-1.66.26-3.37.2-5.19.3v9.52Zm.05-11.4c1.13 0 2.19.03 3.24-.01a3.84 3.84 0 0 0 3.65-3.29c.24-1.93-.84-3.77-2.7-4.17-1.35-.3-2.78-.23-4.18-.32v7.79Z"/></svg>