<svg xmlns="http://www.w3.org/2000/svg" width="137" height="40" fill="none" viewBox="0 0 137 40"><g clip-path="url(#a)"><path fill="#E2AE61" d="M69.255 21.07c-.156 1.158-.28 2.322-.472 3.475-.742 4.464-2.555 8.379-5.999 11.435-3.53 3.134-7.713 4.257-12.346 3.98-4.368-.263-8.347-1.757-12.13-3.862-.385-.214-.686-.408-.294-.885 3.17-3.887 6.822-7.107 11.76-8.588 2.878-.863 5.853-.846 8.807-1.078 1.767-.139 3.547-.381 5.264-.813 1.886-.474 3.376-1.688 4.62-3.177.172-.204.356-.399.533-.598.086.038.172.073.257.111ZM.048 20.949c.232.202.374.29.47.414 2.012 2.574 4.736 3.788 7.917 4.06 2.54.217 5.095.29 7.633.55 4.191.43 7.832 2.191 10.947 4.972 1.412 1.262 2.649 2.72 3.967 4.086.416.431.416.772-.157 1.08-3.53 1.898-7.18 3.452-11.23 3.8-7.478.644-15.666-2.861-18.426-12.09C.571 25.822.379 23.7.008 21.635c-.03-.166.017-.346.037-.689l.003.003ZM42.892 27.357c.075-1.298.285-2.448.176-3.566-.245-2.506-1.439-4.66-2.89-6.665-1.346-1.858-3.033-3.37-4.889-4.705-.439-.315-.863-.418-1.338-.09-3.532 2.435-6.173 5.58-7.584 9.663-.485 1.398-.533 2.859-.218 4.318.04.186.026.386-.025.598-.97-1.34-1.661-2.804-2.161-4.361-1.012-3.15-.57-6.168.858-9.083 2.02-4.12 4.941-7.472 8.704-10.1.6-.42 1.181-.605 1.845-.133 4.413 3.13 7.85 7.016 9.665 12.21.957 2.74.828 5.418-.245 8.057-.525 1.292-1.227 2.514-1.896 3.864l-.002-.008Z"/><path fill="#FAEEE0" d="M43.162 28.686c.21-.325.411-.658.633-.979 4.204-6.07 3.172-13.615-1.25-18.839-1.441-1.703-1.534-1.749-.328-3.642 1.094-1.71 2.401-3.283 3.616-4.916.26-.348.523-.409.838-.035 3.24 3.833 5.421 8.116 5.53 13.244.11 5.206-2.091 9.396-5.83 12.86-.96.889-2.015 1.674-3.025 2.504-.06-.066-.124-.131-.184-.194v-.003ZM26.069 28.805c-4.535-2.872-7.802-6.65-8.855-12.02-.737-3.755-.08-7.314 1.52-10.738A25.127 25.127 0 0 1 22.322.449c.507-.6.596-.595 1.106.005 1.484 1.752 2.959 3.51 3.966 5.598.556 1.15.52 1.385-.363 2.329-4.89 5.216-6.113 13.53-1.313 19.874.131.174.237.368.356.553l-.005-.003Z"/><path fill="#E2AE61" d="M48.05 26.365c.116-.132.222-.273.348-.391 3.338-3.145 4.82-7.057 4.691-11.58-.035-1.23.344-2.104 1.293-2.871 2.406-1.946 5.1-3.329 8.006-4.34.381-.134.687-.19.725.358.315 4.525-.447 8.76-3.396 12.386-2.497 3.071-5.8 4.893-9.526 6.036-.68.207-1.369.374-2.055.558l-.091-.159.005.003ZM21.19 26.566c-4.299-1.022-8.117-2.647-11.076-5.837-3.173-3.422-4.29-7.576-4.158-12.139.048-1.703.06-1.706 1.669-1.097 2.73 1.03 5.236 2.443 7.466 4.335.626.53.964 1.149.926 1.986-.22 4.874 1.381 9.033 4.911 12.43.066.063.114.14.26.325l.003-.003Z"/><path fill="#FAEEE0" d="M34.423 32.964c-.894-1.408-1.58-3.049-2.022-4.798-.952-3.777-.808-7.515.467-11.195.245-.709.606-1.41 1.06-2.006.735-.961 1.692-.84 2.268.222.911 1.689 1.227 3.533.878 5.38-.464 2.466-1.204 4.879-1.747 7.332-.373 1.683-.61 3.394-.904 5.065ZM13.765 24.714c-2.689-.207-5.415-.159-8.018-1.02-1.987-.655-2.838-2.253-3.04-4.181-.162-1.535-.104-3.094-.13-4.644-.002-.184.102-.37.19-.681.27.23.455.356.604.517 1.315 1.403 2.65 2.789 3.928 4.225 1.783 2.006 3.762 3.77 6.037 5.201.182.116.348.258.52.389l-.09.194ZM66.395 14.185c.08.283.151.412.149.54-.03 1.593.038 3.195-.134 4.773-.29 2.687-1.608 4.083-4.285 4.512-2.302.368-4.635.55-6.955.813l-.056-.167c.147-.119.283-.255.442-.353 2.85-1.76 5.204-4.063 7.357-6.602.881-1.04 1.871-1.986 2.82-2.968.17-.174.376-.313.662-.548Z"/><path fill="#FAEEE0" d="M34.403 35.243c-3.022-2.494-5.893-5.133-6.458-9.244-.495-3.607.82-6.62 3.602-8.982.12-.101.268-.167.45-.28-.293 1.284-.611 2.498-.84 3.732-.713 3.788-.36 7.45 1.395 10.93.53 1.053 1.048 2.108 1.568 3.165.109.22.19.452.283.679ZM35.782 34.523a8.27 8.27 0 0 1-.04-4.085c.525-2.221 1.184-4.412 1.782-6.617.608-2.244.838-4.498.159-6.776-.08-.27-.058-.568-.083-.856.06-.035.12-.073.181-.108.313.345.67.66.932 1.04 1.47 2.114 1.646 4.464 1.177 6.91-.432 2.245-1.42 4.287-2.34 6.354-.6 1.347-1.162 2.713-1.768 4.136v.002ZM80.915 29.8c-.227.264-.434.51-.69.81-.078-.107-.133-.2-.204-.28-1.487-1.691-3.923-1.247-4.739.865-.666 1.724.182 3.743 1.795 4.275 1.646.545 3.439-.697 3.598-2.549h-3.037v-.835h4.236c.339 1.628-.89 3.558-2.648 4.166a4.053 4.053 0 0 1-4.926-1.988c-.912-1.787-.349-3.988 1.318-5.138 1.661-1.146 3.903-.879 5.297.67v.003ZM91.32 32.45a3.887 3.887 0 0 1 3.93-3.908c2.147.006 3.901 1.762 3.901 3.905 0 2.155-1.78 3.924-3.946 3.914a3.904 3.904 0 0 1-3.885-3.912Zm.951-.031c-.012 1.98 1.447 3.445 3.273 3.283 1.313-.116 2.38-1.26 2.623-2.811.293-1.878-1.114-3.677-2.899-3.705-1.656-.028-2.989 1.41-3 3.233h.003ZM84.41 28.833c.936 0 1.852-.035 2.766.01.775.04 1.437.684 1.654 1.484a1.963 1.963 0 0 1-.724 2.1c-.177.133-.377.234-.62.383 1.147.881 1.736 2.024 1.703 3.495h-.932c-.015-1.193-.354-2.25-1.34-3-.422-.32-.882-.535-1.485-.389v3.417h-1.02v-7.5h-.003Zm1.044 3.387c.404 0 .773.01 1.142 0a1.387 1.387 0 0 0 1.343-1.272c.055-.69-.386-1.323-1.078-1.449-.45-.08-.92-.06-1.407-.086v2.807ZM106.663 28.846h1.022c.011.126.028.25.028.373 0 1.368.018 2.736-.007 4.1-.031 1.78-1.341 3.067-3.058 3.047-1.664-.02-2.954-1.373-2.959-3.11-.005-1.46 0-2.92 0-4.405h1.055v.449c0 1.448-.002 2.894 0 4.343.003 1.209.806 2.064 1.937 2.077 1.139.013 1.964-.82 1.977-2.034.015-1.431.005-2.864.005-4.295v-.545ZM111.866 36.346h-1.027v-7.498c.969 0 1.939-.073 2.891.02.926.09 1.598 1.007 1.6 1.958 0 .964-.648 1.81-1.593 1.961-.598.096-1.214.076-1.868.111v3.445l-.003.003Zm.018-4.127c.404 0 .785.013 1.167-.002.669-.025 1.234-.545 1.312-1.189.086-.699-.302-1.365-.974-1.511-.485-.106-1-.081-1.502-.116v2.818h-.003ZM86.967 20.227c.803.346 1.273.906 1.386 1.719.164 1.18-.75 2.26-1.984 2.306-1.076.04-2.157.008-3.273.008v-7.473c.988 0 2.015-.138 2.99.033 1.376.245 1.926 1.893 1.141 3.054-.07.103-.149.204-.258.35l-.002.003Zm-2.835 3.37h1.61c.114 0 .228 0 .339-.013.798-.109 1.333-.677 1.323-1.401-.008-.686-.538-1.317-1.245-1.37-.666-.05-1.338-.01-2.025-.01v2.796l-.002-.003Zm.002-3.468c.394 0 .76.01 1.126 0a1.4 1.4 0 0 0 1.361-1.252c.076-.664-.361-1.33-1.045-1.469-.46-.093-.944-.07-1.442-.1v2.823-.002ZM94.569 16.45a3.918 3.918 0 0 1 3.918 3.886c.02 2.15-1.762 3.934-3.926 3.934a3.931 3.931 0 0 1-3.918-3.894c-.018-2.158 1.752-3.927 3.926-3.927Zm-.005 7.202c.237-.038.48-.053.71-.119 2.204-.62 2.996-3.558 1.461-5.403a2.794 2.794 0 0 0-4.337-.005c-.503.6-.743 1.302-.798 2.077-.129 1.807 1.267 3.424 2.964 3.45ZM128.043 20.356c0 2.163-1.773 3.922-3.944 3.911a3.912 3.912 0 0 1-3.888-3.914 3.897 3.897 0 0 1 3.939-3.904 3.91 3.91 0 0 1 3.893 3.907Zm-6.908.015c.048.3.063.608.146.898.336 1.184 1.053 2.04 2.285 2.302 1.139.242 2.096-.172 2.811-1.088.906-1.166.954-2.826.133-4.058-.487-.732-1.154-1.211-2.042-1.307-1.823-.197-3.303 1.27-3.333 3.253ZM105.173 24.215c-.245-2.307-1.356-3.634-2.833-3.37v3.402h-1.022v-7.505c.939 0 1.858-.038 2.77.01.785.04 1.494.737 1.676 1.527a2.036 2.036 0 0 1-.904 2.173c-.134.083-.278.154-.371.207.401.53.848 1.027 1.187 1.587.351.583.474 1.252.383 1.971h-.888l.002-.002Zm-2.805-6.898v2.812c.409 0 .793.012 1.174-.003a1.358 1.358 0 0 0 1.293-1.204c.076-.739-.331-1.37-1.04-1.509-.45-.085-.919-.065-1.427-.096ZM135.602 22.519v-5.772h.591v7.465c-.432.157-.682-.005-.921-.366-1.134-1.698-2.293-3.377-3.525-5.183v5.577h-.641v-.525c0-1.736-.016-3.475.01-5.211.007-.538-.063-1.015-.435-1.424-.08-.088-.128-.207-.229-.37.366 0 .674-.036.967.014.156.028.328.175.424.313 1.133 1.64 2.254 3.289 3.378 4.937.096.141.199.28.384.54l-.003.005ZM80.733 24.34c-.885.056-1.481-.307-1.788-1.09-.532-1.36-1.06-2.718-1.593-4.078-.055-.144-.118-.285-.217-.52-.088.2-.146.318-.197.442l-1.888 4.58c-.207.502-.601.716-1.182.644.553-1.358 1.101-2.708 1.651-4.056.45-1.097.902-2.195 1.346-3.295.096-.238.182-.407.505-.402.303.005.414.127.513.384.909 2.365 1.83 4.724 2.747 7.086.032.089.063.177.106.303l-.003.003ZM111.551 24.242h-1.043v-6.89h-2.469v-.587h5.971v.572h-2.459v6.905ZM117.613 24.237h-.987V16.74h.987v7.497ZM73.866 4.454c.267.023.54.081.803.056.414-.04.616.088.767.502.573 1.567 1.2 3.114 1.808 4.669.063.161.131.32.235.573.573-1.403 1.11-2.718 1.648-4.03.14-.341.283-.682.425-1.023.207-.506.602-.716 1.186-.628L79.05 8.712c-.406.997-.843 1.98-1.21 2.99-.178.495-.431.71-.984.53-.76-1.953-1.53-3.944-2.313-5.93-.207-.525-.449-1.038-.676-1.557v-.29ZM103.52 4.639h4.165v.573h-3.108v2.854h2.275v.616h-2.277v2.836h3.11l.033.616h-4.196V4.639h-.002ZM83.975 6.229c-.775 1.88-1.53 3.669-2.244 5.473-.167.42-.374.558-.829.404.053-.149.096-.298.157-.441.904-2.214 1.805-4.43 2.727-6.638a.819.819 0 0 1 .429-.398c.298-.112.358.164.44.373.883 2.274 1.77 4.548 2.653 6.821.035.089.058.182.108.339-.328 0-.63.04-.916-.018-.136-.028-.28-.227-.341-.379-.682-1.716-1.35-3.437-2.022-5.155-.04-.104-.086-.205-.162-.381ZM113.576 12.164h-1.053c0-.613-.053-1.224.01-1.82.131-1.21-.192-2.253-.904-3.24-.558-.775-.997-1.638-1.537-2.539.401 0 .722-.03 1.027.013.139.02.298.164.379.295.593.954 1.166 1.918 1.787 2.945.528-.969 1.048-1.865 1.51-2.79.21-.422.472-.564.952-.412-.47.865-.891 1.751-1.411 2.576-.599.947-.886 1.931-.775 3.051.06.621.01 1.252.01 1.924l.005-.003ZM96.72 12.147v-7.5h1.046v6.881h3.143v.619h-4.191.002ZM90.997 11.53h3.143v.616h-4.179V4.644h1.036v6.887Z"/></g><defs><clipPath id="a"><path fill="#fff" d="M0 0h136.19v40H0z"/></clipPath></defs></svg>