<svg xmlns="http://www.w3.org/2000/svg" width="138" height="41" fill="none" viewBox="0 0 138 41"><g clip-path="url(#a)"><path fill="#3F0909" d="M.84.54h136.19v40H.84z"/><path fill="#E2AE61" d="M70.1 21.61c-.16 1.16-.28 2.32-.48 3.48-.74 4.46-2.55 8.38-6 11.43-3.53 3.14-7.7 4.26-12.34 3.98-4.37-.26-8.35-1.76-12.13-3.86-.39-.21-.69-.4-.3-.89 3.17-3.88 6.83-7.1 11.76-8.58 2.88-.87 5.86-.85 8.81-1.08a31.9 31.9 0 0 0 5.26-.81 8.96 8.96 0 0 0 4.63-3.18l.53-.6.26.11ZM.89 21.49c.23.2.37.3.47.41 2.01 2.58 4.73 3.8 7.92 4.06 2.54.22 5.09.3 7.63.55 4.19.43 7.83 2.2 10.95 4.98 1.4 1.26 2.64 2.72 3.96 4.08.42.43.42.77-.15 1.08-3.53 1.9-7.19 3.45-11.24 3.8-7.47.65-15.66-2.86-18.42-12.09-.6-2-.8-4.12-1.16-6.18-.03-.17.02-.35.04-.7v.01ZM43.73 27.9c.08-1.3.29-2.45.18-3.57-.25-2.5-1.44-4.66-2.9-6.66a21.15 21.15 0 0 0-4.88-4.7c-.44-.32-.86-.43-1.34-.1a19.23 19.23 0 0 0-7.58 9.67 7.92 7.92 0 0 0-.22 4.31c.04.19.02.39-.03.6a15.37 15.37 0 0 1-2.16-4.36c-1.01-3.15-.57-6.17.86-9.08a26.25 26.25 0 0 1 8.7-10.1c.6-.42 1.19-.6 1.85-.14 4.41 3.13 7.85 7.02 9.66 12.21.96 2.74.83 5.42-.24 8.06-.53 1.3-1.23 2.52-1.9 3.87v-.01Z"/><path fill="#FAEEE0" d="M44 29.23c.21-.33.41-.66.64-.98 4.2-6.07 3.17-13.62-1.25-18.84-1.45-1.7-1.54-1.75-.33-3.64 1.09-1.71 2.4-3.29 3.61-4.92.26-.35.53-.4.84-.03 3.24 3.83 5.42 8.11 5.53 13.24.11 5.2-2.09 9.4-5.83 12.86-.96.89-2.01 1.67-3.02 2.5l-.19-.19ZM26.9 29.35c-4.53-2.88-7.8-6.65-8.85-12.02-.73-3.76-.08-7.32 1.52-10.74a25.13 25.13 0 0 1 3.6-5.6c.5-.6.59-.6 1.1 0 1.48 1.76 2.96 3.52 3.96 5.6.56 1.15.52 1.39-.36 2.33-4.89 5.22-6.11 13.53-1.31 19.88.13.17.24.36.35.55Z"/><path fill="#E2AE61" d="M48.89 26.9c.12-.13.22-.27.35-.38a14.65 14.65 0 0 0 4.69-11.58 3.24 3.24 0 0 1 1.3-2.88 26.3 26.3 0 0 1 8-4.34c.38-.13.68-.19.72.36.32 4.53-.44 8.76-3.4 12.39-2.49 3.07-5.8 4.9-9.52 6.03-.68.21-1.37.38-2.05.56l-.1-.16ZM22.03 27.1c-4.3-1.01-8.12-2.64-11.08-5.83C7.78 17.85 6.66 13.7 6.8 9.13c.04-1.7.06-1.7 1.66-1.1a25.1 25.1 0 0 1 7.47 4.34c.63.53.97 1.15.93 1.99a15.53 15.53 0 0 0 4.9 12.43c.07.06.12.14.27.32Z"/><path fill="#FAEEE0" d="M35.26 33.5c-.9-1.4-1.58-3.04-2.02-4.8a19.2 19.2 0 0 1 .47-11.19c.24-.7.6-1.4 1.06-2 .73-.96 1.69-.84 2.27.22a8.04 8.04 0 0 1 .87 5.38c-.46 2.46-1.2 4.88-1.74 7.33-.38 1.68-.61 3.4-.9 5.07ZM14.6 25.26c-2.68-.21-5.41-.16-8.01-1.02-2-.66-2.84-2.26-3.04-4.19-.17-1.53-.1-3.09-.13-4.64 0-.18.1-.37.19-.68.27.23.45.36.6.52 1.32 1.4 2.65 2.79 3.93 4.22 1.78 2 3.76 3.77 6.04 5.2.18.12.34.26.52.4l-.1.19ZM67.23 14.73c.09.28.16.4.15.54-.03 1.59.04 3.2-.13 4.77-.29 2.69-1.6 4.08-4.28 4.51-2.3.37-4.64.55-6.96.81l-.06-.16c.15-.12.29-.26.45-.36a31.34 31.34 0 0 0 7.35-6.6c.88-1.04 1.87-1.98 2.82-2.97.17-.17.38-.3.66-.54Z"/><path fill="#FAEEE0" d="M35.24 35.78c-3.02-2.49-5.89-5.13-6.46-9.24-.49-3.6.82-6.62 3.6-8.98.13-.1.27-.17.46-.28-.3 1.28-.61 2.5-.84 3.73a16.75 16.75 0 0 0 1.4 10.93l1.56 3.17.28.67ZM36.62 35.07a8.27 8.27 0 0 1-.04-4.1c.53-2.21 1.19-4.4 1.78-6.6.61-2.25.84-4.5.16-6.78-.08-.27-.06-.57-.08-.86l.18-.1c.31.34.67.65.93 1.03 1.47 2.12 1.65 4.47 1.18 6.91-.43 2.25-1.42 4.29-2.34 6.36-.6 1.34-1.16 2.7-1.77 4.13ZM71.1 8.72c.74.06 1.48.22 2.2.15 1.15-.1 1.7.24 2.12 1.38 1.58 4.31 3.3 8.57 4.97 12.84.17.44.36.88.65 1.57l4.53-11.09 1.16-2.8c.56-1.4 1.65-1.98 3.26-1.74l-4.64 11.38c-1.12 2.74-2.32 5.45-3.32 8.23-.5 1.36-1.2 1.95-2.71 1.45-2.1-5.37-4.21-10.85-6.36-16.3-.57-1.46-1.24-2.86-1.86-4.29v-.8.02ZM98.9 13.6c-2.13 5.17-4.21 10.1-6.17 15.06-.45 1.15-1.03 1.53-2.28 1.11.14-.4.27-.82.43-1.2 2.49-6.1 4.96-12.19 7.49-18.27.19-.46.7-.92 1.18-1.1.81-.3.98.45 1.2 1.03l7.3 18.76c.09.24.16.5.3.93-.9 0-1.74.11-2.52-.05-.38-.08-.77-.62-.94-1.04-1.89-4.72-3.72-9.45-5.56-14.18-.11-.29-.24-.56-.44-1.05ZM131.06 12.58l-1.94 2.27c-.22-.3-.38-.56-.58-.79-4.15-4.74-10.97-3.49-13.26 2.43-1.88 4.83.5 10.48 5.03 11.98 4.6 1.53 9.63-1.95 10.07-7.14h-8.5V19h11.87c.94 4.56-2.5 9.97-7.42 11.67a11.34 11.34 0 0 1-13.78-5.57 11.3 11.3 0 0 1 3.69-14.39 11.24 11.24 0 0 1 14.83 1.88h-.01Z"/></g><defs><clipPath id="a"><path fill="#fff" d="M.84.54h136.19v40H.84z"/></clipPath></defs></svg>