<svg xmlns="http://www.w3.org/2000/svg" width="6557" height="1008" style="shape-rendering:geometricPrecision;text-rendering:geometricPrecision;image-rendering:optimizeQuality;fill-rule:evenodd;clip-rule:evenodd"><path fill="#feff00" d="M3602.5 189.5c1.33.67 1.33.67 0 0Z" style="opacity:.004"/><path fill="#feece0" d="M3602.5 190.5a40.88 40.88 0 0 1 8 9l4-3c1.86 1.7 3.86 3.2 6 4.5l-1 1 3.5 3.5a4.6 4.6 0 0 1 4.5-2l3 12a6.85 6.85 0 0 0 4-1c2.1 1.12 2.43 2.62 1 4.5 1.93.25 3.77.75 5.5 1.5a23.23 23.23 0 0 1 1.5 9c-.53.7-1.19 1.2-2 1.5 1.4.41 2.73.91 4 1.5.79 3.2.12 6.2-2 9 2.78-.16 5.78.17 9 1a20.6 20.6 0 0 0-3 5.5c3.77.61 3.77 1.61 0 3 2.39.7 2.39 1.7 0 3l3 1c-.56 1.57.11 2.9 2 4-1.7 1.4-2.2 3.24-1.5 5.5l-2.5 2.5c2.41 1.9 2.41 3.9 0 6a9.24 9.24 0 0 0 2 2.5c-2.97 1.17-3.3 2.5-1 4-1.67 1-3 2.33-4 4 .53.7 1.19 1.2 2 1.5-2.47 2.55-3.14 5.39-2 8.5a4.94 4.94 0 0 0-3 .5c.17 1.57.5 3.4 1 5.5a7.03 7.03 0 0 0-6 3.5c3.72 1.37 3.72 3.03 0 5-2.5.88-4.83 2.05-7 3.5a3.6 3.6 0 0 1-1.5-1 12.6 12.6 0 0 0 3.5 6.5c-1.83 1.79-3.83 1.95-6 .5a3.08 3.08 0 0 0-1 3 14.83 14.83 0 0 1-6.5-2l-1 3c-1.49-1.25-2.99-1.25-4.5 0a27.49 27.49 0 0 0-2 4.5c.2 2.26.54 4.76 1 7.5a77.3 77.3 0 0 0-13 0 15.07 15.07 0 0 1-3.5-3c-1.8 1.27-3.63 1.27-5.5 0-1.88.6-3.72 1.26-5.5 2-.14 2.79-1.31 5.45-3.5 8a12.75 12.75 0 0 0-7-2.5 14.48 14.48 0 0 0-5-4c1.21-.9 1.21-1.73 0-2.5-3.13 1.27-4.47 3.6-4 7a56.05 56.05 0 0 1-8-6 14.86 14.86 0 0 0-3.5 4 36.17 36.17 0 0 0-3.5-4.5h-4a230.23 230.23 0 0 0-6.5-9.5 19.78 19.78 0 0 0-4.5 3c-.7-2.17-1.7-4.17-3-6-.95.83-1.95 1-3 .5-.59-1.5-1.26-3-2-4.5-.93 1.14-1.76 1.14-2.5 0 .09-3-1.24-5-4-6-.2-1.7-.2-3.37 0-5-1.4-.55-2.73-.88-4-1-.78-2.93-.61-5.76.5-8.5-1.92.13-3.92.3-6 .5.83-2.97 1-5.97.5-9a43.06 43.06 0 0 0-4.5-4.5c.05-2.28.38-4.61 1-7-4.2-5.65-4.87-10.98-2-16a46.33 46.33 0 0 1 0-15.5c2.43-3.84 4.77-7.68 7-11.5-2.63-1.7-2.3-2.86 1-3.5l-2-3c1.9-1.44 2.23-3.1 1-5a3.09 3.09 0 0 1 3-1 4.38 4.38 0 0 0-1-3.5c2.91-1.9 5.08-4.4 6.5-7.5.56.52 1.23.85 2 1a7.84 7.84 0 0 1 5.5-2v-4a7.11 7.11 0 0 0 5-1c-1.24-1.63-.74-2.63 1.5-3 2.28.05 4.61.38 7 1 .14-2.02.31-3.85.5-5.5 2.36 0 4.69.5 7 1.5l2-5c3.35 2.82 6.19 2.48 8.5-1 1.44.65 2.94.98 4.5 1a3.08 3.08 0 0 1 1-3 8.5 8.5 0 0 0 8 0 7.24 7.24 0 0 1 2.5 2 3.63 3.63 0 0 1 2-2c2.84 1.72 4.84 1.05 6-2 .58 1.5 1.42 2.84 2.5 4 1.03-1.54 2.37-2.04 4-1.5l6.5 5.5a5.2 5.2 0 0 1 3.5-4Z" style="opacity:.637"/><path fill="#feece0" d="M4083.5 317.5a173.43 173.43 0 0 0 23 20 1648.62 1648.62 0 0 1 57.5 60c.48.95.65 1.95.5 3a4.94 4.94 0 0 1 3 .5c-1.15.91-.99 1.75.5 2.5l1-1c2 3.33 4.67 6 8 8a579.53 579.53 0 0 0 25.5 26.5c.95.48 1.95.65 3 .5a4.86 4.86 0 0 0 1 4 89.31 89.31 0 0 1 9 8.5c-.95.72-1.12 1.55-.5 2.5a30.09 30.09 0 0 1 6 7l1-1a42.37 42.37 0 0 0 14 16 123.97 123.97 0 0 0 23.5 26.5c-1.33.67-1.33 1.33 0 2a4615.55 4615.55 0 0 1 130 125.5c-1.33.33-1.33.67 0 1a476.15 476.15 0 0 0 63 62 315.3 315.3 0 0 1 30.5-41 10157.5 10157.5 0 0 0 90.5-133.5c2.34-4.52 5.84-9.35 10.5-14.5a1041.25 1041.25 0 0 1 65-87 664.95 664.95 0 0 1 59.5-82c5.3-5.8 10.8-11.46 16.5-17 3.84-5.5 8-10.66 12.5-15.5-1.2-1.95-.7-3.45 1.5-4.5a8.4 8.4 0 0 0 .5-4 4.94 4.94 0 0 0 3-.5l-1-1a9.4 9.4 0 0 0 2.5-1.5l1-7c2.87-.2 5.37-1.7 7.5-4.5a8.34 8.34 0 0 0 4.5 1.5c2.12-2.26 4.45-3.26 7-3 6.59-4.2 13.26-4.53 20-1a31.9 31.9 0 0 0 4.5-3 9.98 9.98 0 0 0 7 3.5c.79 3.1 1.96 3.26 3.5.5a32.26 32.26 0 0 1 9 6l6-5 4 2a45.28 45.28 0 0 0 3.5 11.5l-1 1c.95.48 1.95.65 3 .5-.16 3.02 0 6.02.5 9a461.43 461.43 0 0 0 32 49 222.25 222.25 0 0 1 22 21 605.95 605.95 0 0 0 52.5 57c20.8 22.3 41.47 44.8 62 67.5 15.96 13 31.63 26.5 47 40.5a2115.6 2115.6 0 0 0 96 93 1505.7 1505.7 0 0 0 33.5 32 4.66 4.66 0 0 0 3-2 2604.22 2604.22 0 0 1 64-102 1360.67 1360.67 0 0 1 55-69l30-45a878.66 878.66 0 0 0 50-71 444.05 444.05 0 0 0 22-28 308.75 308.75 0 0 0 36.5-44 26.73 26.73 0 0 0 5-7 442.78 442.78 0 0 1 40.5-50 16.56 16.56 0 0 1 7.5-7.5 26.7 26.7 0 0 1 2-3.5c5.55-2.8 10.89-5.14 16-7l2 1c1.2-.35 1.2-.85 0-1.5a41.7 41.7 0 0 1 26 2.5l6-1a14.62 14.62 0 0 1 5 5c1.61.82 3.27 1.49 5 2 2.69-.63 5.19-.63 7.5 0l7 6c-.44 2.97.72 5.47 3.5 7.5 1.05.5 2.05.33 3-.5.15 2.3.49 4.63 1 7 1.64 1.18 3.3 1.18 5 0 .96 3.13.96 5.96 0 8.5 5.5 7.97 11 16.47 16.5 25.5a313.9 313.9 0 0 1 20.5 25.5 1984.23 1984.23 0 0 1 33.5 34.5l1-2 3 5a58.28 58.28 0 0 1 14 15 189.36 189.36 0 0 1 26 30c22.71 23 44.21 45.5 64.5 67.5a86.48 86.48 0 0 1 13.5 17.5 2613.04 2613.04 0 0 1 65.5 72c4.37 2.99 7.37 6.65 9 11a733.33 733.33 0 0 0 22.5 23 344.73 344.73 0 0 0 37.5 38.5 983.4 983.4 0 0 0 26 25.5l69-74a365.9 365.9 0 0 1 16-19 344.58 344.58 0 0 1 23.5-28c10.29-11.63 20.62-23.3 31-35a2505.82 2505.82 0 0 1 85.5-106.5l-1-1a107.87 107.87 0 0 0 21-26.5 4.94 4.94 0 0 0 3-.5l-1-1a273.3 273.3 0 0 0 18.5-20.5 103 103 0 0 0 10-14l1 1a19.03 19.03 0 0 0 3-5c1.15.96 2.15.63 3-1 .11-2.35 1.28-3.85 3.5-4.5 7.75-9.39 16.08-19.55 25-30.5a139.8 139.8 0 0 0 14-16 119.5 119.5 0 0 0 18-21.5 10.8 10.8 0 0 0 5.5-3.5c1.05 1.02 2.22 1.18 3.5.5l-1-1c2.65-.31 3.31-1.48 2-3.5a41.54 41.54 0 0 0 15.5-9l1 1a3.82 3.82 0 0 1 2.5-2 32.5 32.5 0 0 0 14.5 0c7.58.27 13.75 3.27 18.5 9 2.89-2.97 5.22-2.64 7 1a3.63 3.63 0 0 1-1 1.5c3.88.9 6.05 3.4 6.5 7.5a17.85 17.85 0 0 1 5.5 4.5 9 9 0 0 0 6.5-1.5c.22 1.44.72 2.77 1.5 4a6.85 6.85 0 0 1 4-1 83.9 83.9 0 0 1-1 17 67.49 67.49 0 0 1-5 11.5c3.19 2.1 4.85 4.76 5 8a7.04 7.04 0 0 0-2 2.5c-1.99 2.02-1.99 3.86 0 5.5a6.05 6.05 0 0 1-3 3.5c-2.24.8-2.58 2.13-1 4-3.59.72-4.93 2.72-4 6-.76.41-1.76.58-3 .5-1.27.98-1.27 1.81 0 2.5-1 1.18-1.84 2.52-2.5 4-1.16-1.07-1.99-.73-2.5 1-1.33.33-1.33.67 0 1a9.7 9.7 0 0 1-4 6.5l1 1a3.3 3.3 0 0 0-2 1.5c-.67 0-1 .33-1 1a3 3 0 0 0-2 2c-2.44-.38-3.11.29-2 2a12.97 12.97 0 0 1-4 4.5c.95.72 1.12 1.55.5 2.5a35.47 35.47 0 0 0-8.5 9.5l2 1c-2.77.7-3.6 2.2-2.5 4.5l-1-1c-.5 1.17-1.33 2-2.5 2.5.78 1.77.61 3.6-.5 5.5a641.57 641.57 0 0 0-14.5 19.5l1 1c-1.05 1.12-2.22 1.62-3.5 1.5a23.74 23.74 0 0 1-2.5 6 1016.07 1016.07 0 0 1-46.5 55 27.51 27.51 0 0 0-4 8 232.42 232.42 0 0 0-19.5 25 1199.43 1199.43 0 0 0-52 57c-1.33.33-1.33.67 0 1-1.12 2.78-2.28 3.11-3.5 1-1.49.75-1.65 1.59-.5 2.5a11.13 11.13 0 0 0-4.5 6.5 11.15 11.15 0 0 0-5.5 3.5l2 1c-8.55 6.52-15.38 14.02-20.5 22.5a1023.12 1023.12 0 0 0-74 78 50.32 50.32 0 0 0-17.5 18 314.3 314.3 0 0 0-42.5 47 74.65 74.65 0 0 0-14.5 14.5 50.84 50.84 0 0 0-16 15.5 172.36 172.36 0 0 1-22 15.5c1.65 2.25 1.99 4.58 1 7-2.92-.76-5.25-.1-7 2-4.26.57-8.43 1.4-12.5 2.5a3.96 3.96 0 0 0-3.5-2c-1.95.66-3.95.99-6 1a4.02 4.02 0 0 0-2.5-4c-.31 1.24.19 2.24 1.5 3-1.97 1.92-3.47 1.92-4.5 0-1.67 1.33-3.33 1.33-5 0l-1 2c-15.84-1.07-29.18-7.73-40-20l-1 1a9.23 9.23 0 0 0-4.5-5.5l1-1a4.94 4.94 0 0 0-3-.5 6.45 6.45 0 0 0-3-5c-31.97-26.52-60.47-53.86-85.5-82l-1-3-1 1a1410.86 1410.86 0 0 1-66.5-73 446.82 446.82 0 0 1-49-54 7247.54 7247.54 0 0 0-69-73.5l1-1a887.78 887.78 0 0 1-13-15 20.51 20.51 0 0 1-5.5-5.5 4.95 4.95 0 0 1-.5-3 4.94 4.94 0 0 1-3-.5 637.27 637.27 0 0 0-29.5-30.5 261.55 261.55 0 0 0-17.5-20.5l2-1a46.87 46.87 0 0 1-13.5-14.5 2010.75 2010.75 0 0 0-48 59 2381.93 2381.93 0 0 1-142 191 814.8 814.8 0 0 1-37 59 474.02 474.02 0 0 1-54.5 86.5c2.34 1 3.84 2.5 4.5 4.5a80.84 80.84 0 0 1-11.5 8.5c-.95.62-1.78.45-2.5-.5a19.81 19.81 0 0 0-3.5 5.5c-1.05.5-2.05.33-3-.5a29.36 29.36 0 0 1-17 12.5 16 16 0 0 0 0 9 9.25 9.25 0 0 0-1.5 2.5c-4.88-.33-10.04-1.67-15.5-4a58.37 58.37 0 0 0-14.5-7 5.54 5.54 0 0 1-4.5 4 70.25 70.25 0 0 1-25-11.5l-14-15c-9.83-7-19.5-14.17-29-21.5a9798.96 9798.96 0 0 0-83.5-83 1686.4 1686.4 0 0 0-102.5-105 1051.9 1051.9 0 0 0-76.5-86 1591.81 1591.81 0 0 1-31.5-38 182.72 182.72 0 0 1-20.5-22 791.98 791.98 0 0 0-42 60c-13.97 16.98-27.97 33.98-42 51a337.04 337.04 0 0 1-29 40l-49 68a748.28 748.28 0 0 1-20 31 934.31 934.31 0 0 1-51.5 63 277.42 277.42 0 0 1-31 42.5l2 2a13.05 13.05 0 0 1-6 6l2 2a17.81 17.81 0 0 1-8 6c.81.3 1.47.8 2 1.5a88.5 88.5 0 0 0-7.5 5 6.34 6.34 0 0 1-.5 3.5l-11 5c-2.03 1.4-2.36 3.06-1 5a9.89 9.89 0 0 1-5 2c1.1 1.13.77 1.97-1 2.5-1.61-1.05-3.28-1.05-5 0-2.82 1.21-4.82 2.54-6 4a78.57 78.57 0 0 1-16.5-4c-4.67.55-9 .89-13 1a105.06 105.06 0 0 1-16-7l-1 1c-9-5-16.83-11.5-23.5-19.5a390.53 390.53 0 0 1-35-31l-18-14a3985.6 3985.6 0 0 1-53-53.5 173.43 173.43 0 0 0-23-20 1648.62 1648.62 0 0 1-57.5-60 4.95 4.95 0 0 1-.5-3 4.94 4.94 0 0 1-3-.5c1.15-.91.99-1.75-.5-2.5l-1 1c-2-3.33-4.67-6-8-8a579.53 579.53 0 0 0-25.5-26.5 4.94 4.94 0 0 0-3-.5 4.86 4.86 0 0 0-1-4 101.6 101.6 0 0 0-8-7 5.78 5.78 0 0 1-.5-4 39.03 39.03 0 0 1-5.5-6c-.33-1.33-.67-1.33-1 0a630.26 630.26 0 0 1-32.5-39A6038.4 6038.4 0 0 1 3987.5 379l1-1a295.55 295.55 0 0 1-21-23.5 843.87 843.87 0 0 0-43-39 6788.1 6788.1 0 0 1-55.5 76 3131.78 3131.78 0 0 1-67.5 101.5 2010.36 2010.36 0 0 0-35.5 50.5 1364.03 1364.03 0 0 1-38 48 664.95 664.95 0 0 1-59.5 82c-5.3 5.8-10.8 11.47-16.5 17-3.84 5.5-8 10.66-12.5 15.5 1.2 1.95.7 3.45-1.5 4.5a8.4 8.4 0 0 0-.5 4 4.94 4.94 0 0 0-3 .5l1 1a9.4 9.4 0 0 0-2.5 1.5l-1 7-1-1a65.29 65.29 0 0 0-7.5 6c-.81-1.78-1.98-2.44-3.5-2-2.12 2.26-4.45 3.26-7 3-6.26 3.76-12.76 4.42-19.5 2-.33-1.33-.67-1.33-1 0-1.54.2-2.88.87-4 2a9.98 9.98 0 0 0-7-3.5c-.79-3.1-1.96-3.26-3.5-.5a32.26 32.26 0 0 1-9-6l-6 5c-1.07-.7-2.23-1.2-3.5-1.5-1.08-4.1-2.42-8.1-4-12l1-1a4.94 4.94 0 0 0-3-.5c.16-3.02 0-6.02-.5-9a461.43 461.43 0 0 0-32-49 222.25 222.25 0 0 1-22-21 605.95 605.95 0 0 0-52.5-57c-20.8-22.3-41.47-44.8-62-67.5-15.96-13-31.63-26.5-47-40.5a2115.6 2115.6 0 0 0-96-93 1505.7 1505.7 0 0 0-33.5-32 4.66 4.66 0 0 0-3 2 2604.22 2604.22 0 0 1-64 102 1360.67 1360.67 0 0 1-55 69l-30 45a878.66 878.66 0 0 0-50 71 444.05 444.05 0 0 0-22 28 308.75 308.75 0 0 0-36.5 44 26.73 26.73 0 0 0-5 7 442.78 442.78 0 0 1-40.5 50 16.56 16.56 0 0 1-7.5 7.5 26.7 26.7 0 0 1-2 3.5 146.65 146.65 0 0 1-16 7l-2-1c-1.2.35-1.2.85 0 1.5a41.7 41.7 0 0 1-26-2.5l-6 1a14.62 14.62 0 0 1-5-5 29.72 29.72 0 0 0-5-2c-2.69.63-5.19.63-7.5 0l-7-6c.44-2.97-.72-5.47-3.5-7.5-1.05-.5-2.05-.33-3 .5-.15-2.3-.49-4.63-1-7-1.64-1.18-3.3-1.18-5 0-.96-3.13-.96-5.96 0-8.5-5.5-7.97-11-16.47-16.5-25.5a313.9 313.9 0 0 1-20.5-25.5 1984.23 1984.23 0 0 1-33.5-34.5l-1 2-3-5a58.28 58.28 0 0 1-14-15 189.36 189.36 0 0 1-26-30c-22.71-23-44.21-45.5-64.5-67.5a86.48 86.48 0 0 1-13.5-17.5 4938.91 4938.91 0 0 1-64.5-71 701.06 701.06 0 0 0-9-8.5l1-1a8202.22 8202.22 0 0 0-50.5-53.5l-1 1a28.95 28.95 0 0 0-10.5-11.5 983.4 983.4 0 0 0-26-25.5 203.57 203.57 0 0 1-17 24.5l1 1c-1.05 1.12-2.22 1.62-3.5 1.5a23.74 23.74 0 0 1-2.5 6 1016.07 1016.07 0 0 1-46.5 55 27.51 27.51 0 0 0-4 8c-2.67 2-5 4.33-7 7-3.38 5.04-6.72 10.04-10 15a1510.91 1510.91 0 0 0-54.5 60c-1.33.33-1.33.67 0 1-1.12 2.78-2.28 3.11-3.5 1-1.49.75-1.65 1.59-.5 2.5a11.13 11.13 0 0 0-4.5 6.5 11.15 11.15 0 0 0-5.5 3.5l2 1c-8.55 6.52-15.38 14.02-20.5 22.5a1661.97 1661.97 0 0 0-67.5 69.5l1 1a3.27 3.27 0 0 0-2 3.5 4.94 4.94 0 0 0-3 .5l1 1a49.82 49.82 0 0 1-10 10.5c-6.36 8.02-12.7 16.02-19 24-.33-1.33-.67-1.33-1 0a385.88 385.88 0 0 0-34 40 139.8 139.8 0 0 0-14 16 119.5 119.5 0 0 0-18 21.5 10.8 10.8 0 0 0-5.5 3.5c-1.05-1.02-2.22-1.18-3.5-.5l1 1c-2.65.32-3.31 1.48-2 3.5a41.54 41.54 0 0 0-15.5 9l-1-1a3.82 3.82 0 0 1-2.5 2 32.5 32.5 0 0 0-14.5 0 39.4 39.4 0 0 0-10.5-2.5 11.47 11.47 0 0 1-4.5-3.5l-1 1c-15.84-1.07-29.18-7.73-40-20l-1 1a9.23 9.23 0 0 0-4.5-5.5l1-1a4.94 4.94 0 0 0-3-.5 6.45 6.45 0 0 0-3-5c-31.97-26.52-60.47-53.86-85.5-82l-1-3-1 1a1410.86 1410.86 0 0 1-66.5-73 446.82 446.82 0 0 1-49-54 7247.54 7247.54 0 0 0-69-73.5l1-1a887.78 887.78 0 0 1-13-15 20.51 20.51 0 0 1-5.5-5.5 4.95 4.95 0 0 1-.5-3 4.94 4.94 0 0 1-3-.5 637.27 637.27 0 0 0-29.5-30.5 261.55 261.55 0 0 0-17.5-20.5l2-1a46.87 46.87 0 0 1-13.5-14.5 2010.75 2010.75 0 0 0-48 59 2381.93 2381.93 0 0 1-142 191 814.8 814.8 0 0 1-37 59 474.02 474.02 0 0 1-54.5 86.5c2.34 1 3.84 2.5 4.5 4.5a80.84 80.84 0 0 1-11.5 8.5c-.95.62-1.78.45-2.5-.5a19.81 19.81 0 0 0-3.5 5.5c-1.05.5-2.05.33-3-.5a29.36 29.36 0 0 1-17 12.5 16 16 0 0 0 0 9 9.25 9.25 0 0 0-1.5 2.5c-4.88-.33-10.04-1.67-15.5-4a58.37 58.37 0 0 0-14.5-7 5.54 5.54 0 0 1-4.5 4 70.25 70.25 0 0 1-25-11.5l-14-15c-9.83-7-19.5-14.17-29-21.5a9798.96 9798.96 0 0 0-83.5-83 1686.4 1686.4 0 0 0-102.5-105 1051.33 1051.33 0 0 0-76.5-86 1606.36 1606.36 0 0 1-31.5-38 182.72 182.72 0 0 1-20.5-22 794.28 794.28 0 0 0-42 60c-13.97 16.98-27.97 33.98-42 51a337.27 337.27 0 0 1-29 40l-49 68a747.25 747.25 0 0 1-20 31 934.93 934.93 0 0 1-51.5 63 277.76 277.76 0 0 1-31 42.5l2 2a13.08 13.08 0 0 1-6 6l2 2a17.8 17.8 0 0 1-8 6c.8.3 1.48.8 2 1.5a89.8 89.8 0 0 0-7.5 5 6.34 6.34 0 0 1-.5 3.5l-11 5c-2.03 1.4-2.36 3.06-1 5a9.87 9.87 0 0 1-5 2c1.1 1.13.77 1.97-1 2.5-1.61-1.05-3.28-1.05-5 0-2.82 1.21-4.82 2.54-6 4a78.72 78.72 0 0 1-16.5-4 145 145 0 0 1-13 1 104.93 104.93 0 0 1-16-7l-1 1c-9-5-16.83-11.5-23.5-19.5a389.84 389.84 0 0 1-35-31l-18-14a4003.6 4003.6 0 0 1-53-53.5 173.24 173.24 0 0 0-23-20 1649.48 1649.48 0 0 1-57.5-60 4.93 4.93 0 0 1-.5-3 4.93 4.93 0 0 1-3-.5c1.15-.91.99-1.75-.5-2.5l-1 1c-2-3.33-4.67-6-8-8a582.77 582.77 0 0 0-25.5-26.5 4.93 4.93 0 0 0-3-.5 4.85 4.85 0 0 0-1-4 101.6 101.6 0 0 0-8-7 5.74 5.74 0 0 1-.5-4 38.98 38.98 0 0 1-5.5-6c-.33-1.33-.67-1.33-1 0a629.9 629.9 0 0 1-32.5-39l-1 1a7.51 7.51 0 0 0-4.5-4.5l1-1a42.9 42.9 0 0 1-12-12.5c-.53-2.96-1.2-3.3-2-1-8.3-6.3-15.96-13.3-23-21a2133.6 2133.6 0 0 0-61-70.5c.46-.41.8-.91 1-1.5-3.48-4.93-3.8-9.6-1-14l-3-8a7.25 7.25 0 0 1 2-2.5c-1.47-3.55-.14-5.22 4-5a6.3 6.3 0 0 1-1-3c.78-2.82 1.44-5.66 2-8.5a4.85 4.85 0 0 0 4-1c1.2-2.4 2.87-4.4 5-6a4.33 4.33 0 0 1 2.5 3 51.77 51.77 0 0 0 4-7l3 3c.78-3.15 2.28-3.65 4.5-1.5-1.33.67-1.33 1.33 0 2 1.23.78 2.56 1.28 4 1.5a5.2 5.2 0 0 1 5.5 0c2.6-3.39 5.78-3.89 9.5-1.5 6.64 2.77 12.97 6.1 19 10 16.3 13.3 32.3 26.96 48 41a1015.18 1015.18 0 0 1 61 45 1897.22 1897.22 0 0 1 44 41.5 3454.75 3454.75 0 0 1 56 47.5c31.93 31.1 63.6 62.27 95 93.5-1.33.33-1.33.67 0 1a475.79 475.79 0 0 0 63 62 315.48 315.48 0 0 1 30.5-41c30.44-44.14 60.6-88.64 90.5-133.5 2.34-4.52 5.84-9.35 10.5-14.5a1042.8 1042.8 0 0 1 65-87 665.47 665.47 0 0 1 59.5-82c5.3-5.8 10.8-11.46 16.5-17 3.84-5.5 8-10.66 12.5-15.5-1.2-1.95-.7-3.45 1.5-4.5.49-1.3.66-2.63.5-4a4.93 4.93 0 0 0 3-.5l-1-1a9.45 9.45 0 0 0 2.5-1.5l1-7c2.87-.2 5.37-1.7 7.5-4.5a8.37 8.37 0 0 0 4.5 1.5c2.12-2.26 4.45-3.26 7-3 6.6-4.2 13.26-4.53 20-1a32.37 32.37 0 0 0 4.5-3 9.98 9.98 0 0 0 7 3.5c.79 3.1 1.96 3.26 3.5.5a32.14 32.14 0 0 1 9 6l6-5 4 2a45.4 45.4 0 0 0 3.5 11.5l-1 1c.95.48 1.95.65 3 .5-.16 3.02 0 6.02.5 9a462.2 462.2 0 0 0 32 49 221.92 221.92 0 0 1 22 21 605.95 605.95 0 0 0 52.5 57c20.8 22.3 41.47 44.8 62 67.5 15.96 13 31.63 26.5 47 40.5a2115.6 2115.6 0 0 0 96 93 1505.7 1505.7 0 0 0 33.5 32 4.66 4.66 0 0 0 3-2 2604.22 2604.22 0 0 1 64-102 1360.67 1360.67 0 0 1 55-69l30-45a878.66 878.66 0 0 0 50-71 444.05 444.05 0 0 0 22-28 308.75 308.75 0 0 0 36.5-44 26.73 26.73 0 0 0 5-7 442.78 442.78 0 0 1 40.5-50 16.56 16.56 0 0 1 7.5-7.5 26.7 26.7 0 0 1 2-3.5c5.55-2.8 10.89-5.14 16-7l2 1c1.2-.35 1.2-.85 0-1.5a41.7 41.7 0 0 1 26 2.5l6-1a14.62 14.62 0 0 1 5 5c1.61.82 3.27 1.49 5 2 2.69-.63 5.19-.63 7.5 0l7 6c-.44 2.97.72 5.47 3.5 7.5 1.05.5 2.05.33 3-.5.15 2.3.49 4.63 1 7 1.64 1.18 3.3 1.18 5 0 .96 3.13.96 5.96 0 8.5 5.5 7.97 11 16.47 16.5 25.5a313.9 313.9 0 0 1 20.5 25.5 1984.23 1984.23 0 0 1 33.5 34.5l1-2 3 5a58.28 58.28 0 0 1 14 15 189.36 189.36 0 0 1 26 30c22.71 23 44.21 45.5 64.5 67.5a86.48 86.48 0 0 1 13.5 17.5 2613.04 2613.04 0 0 1 65.5 72c4.37 2.99 7.37 6.65 9 11a733.33 733.33 0 0 0 22.5 23 344.73 344.73 0 0 0 37.5 38.5 983.4 983.4 0 0 0 26 25.5 203.57 203.57 0 0 1 17-24.5l-1-1c1.05-1.12 2.22-1.62 3.5-1.5a23.74 23.74 0 0 1 2.5-6 1016.07 1016.07 0 0 1 46.5-55c1.76-2.44 3.1-5.1 4-8a232.42 232.42 0 0 0 19.5-25 2514.92 2514.92 0 0 0 53-57.5c-.76-1.36-.26-2.53 1.5-3.5.45 2.43 1.28 2.6 2.5.5l-1-1a11.13 11.13 0 0 0 4.5-6.5 11.15 11.15 0 0 0 5.5-3.5l-2-1c8.55-6.52 15.38-14.02 20.5-22.5a1661.97 1661.97 0 0 0 67.5-69.5l-1-1a3.27 3.27 0 0 0 2-3.5 4.94 4.94 0 0 0 3-.5l-1-1a273.3 273.3 0 0 0 18.5-20.5 103 103 0 0 0 10-14l1 1a19.03 19.03 0 0 0 3-5c1.15.96 2.15.63 3-1 .11-2.35 1.28-3.85 3.5-4.5 7.75-9.39 16.08-19.55 25-30.5a139.8 139.8 0 0 0 14-16 119.5 119.5 0 0 0 18-21.5 10.8 10.8 0 0 0 5.5-3.5c1.05 1.02 2.22 1.18 3.5.5l-1-1c2.65-.31 3.31-1.48 2-3.5a41.54 41.54 0 0 0 15.5-9l1 1a3.82 3.82 0 0 1 2.5-2 32.5 32.5 0 0 0 14.5 0 39.4 39.4 0 0 0 10.5 2.5c1.79.78 3.29 1.95 4.5 3.5l1-1c15.84 1.07 29.18 7.73 40 20l1-1a9.23 9.23 0 0 0 4.5 5.5l-1 1c.95.48 1.95.65 3 .5a6.45 6.45 0 0 0 3 5c31.97 26.52 60.47 53.86 85.5 82l1 3 1-1a1410.86 1410.86 0 0 1 66.5 73 446.82 446.82 0 0 1 49 54c22.87 24.7 45.87 49.2 69 73.5l-1 1a887.78 887.78 0 0 1 13 15 20.51 20.51 0 0 1 5.5 5.5c.48.95.65 1.95.5 3a4.94 4.94 0 0 1 3 .5 637.27 637.27 0 0 0 29.5 30.5 261.55 261.55 0 0 0 17.5 20.5l-2 1a46.87 46.87 0 0 1 13.5 14.5 2010.75 2010.75 0 0 0 48-59 2381.93 2381.93 0 0 1 142-191 814.8 814.8 0 0 1 37-59 474.02 474.02 0 0 1 54.5-86.5c-2.34-1-3.84-2.5-4.5-4.5a80.84 80.84 0 0 1 11.5-8.5c.95-.62 1.78-.45 2.5.5a19.81 19.81 0 0 0 3.5-5.5c1.05-.5 2.05-.33 3 .5a29.36 29.36 0 0 1 17-12.5 16 16 0 0 0 0-9 9.25 9.25 0 0 0 1.5-2.5c4.88.33 10.04 1.67 15.5 4a58.37 58.37 0 0 0 14.5 7 5.54 5.54 0 0 1 4.5-4 70.25 70.25 0 0 1 25 11.5l14 15c9.83 7 19.5 14.17 29 21.5a9798.96 9798.96 0 0 0 83.5 83 1686.4 1686.4 0 0 0 102.5 105 1051.9 1051.9 0 0 0 76.5 86 1591.81 1591.81 0 0 1 31.5 38 182.72 182.72 0 0 1 20.5 22 791.98 791.98 0 0 0 42-60c13.97-16.98 27.97-33.98 42-51a337.04 337.04 0 0 1 29-40l49-68a748.28 748.28 0 0 1 20-31 934.31 934.31 0 0 1 51.5-63 277.42 277.42 0 0 1 31-42.5l-2-2a13.05 13.05 0 0 1 6-6l-2-2a17.81 17.81 0 0 1 8-6c-.81-.3-1.47-.8-2-1.5a88.5 88.5 0 0 0 7.5-5c-.15-1.32.02-2.5.5-3.5l11-5c2.03-1.4 2.36-3.06 1-5a9.89 9.89 0 0 1 5-2c-1.1-1.13-.77-1.97 1-2.5 1.61 1.05 3.28 1.05 5 0 2.82-1.21 4.82-2.54 6-4 5.7.75 11.2 2.08 16.5 4 4.67-.56 9-.89 13-1a105.06 105.06 0 0 1 16 7l1-1c9 5 16.83 11.5 23.5 19.5a390.53 390.53 0 0 1 35 31l18 14a3985.6 3985.6 0 0 1 53 53.5Zm-889-111c-.58 1.27-1.24 1.27-2 0 .47-.96 1.14-.96 2 0Zm3156 94c.75-1.07 1.75-1.24 3-.5-.85 1.73-1.85 1.9-3 .5Zm-6179 52c.75-1.07 1.75-1.24 3-.5-.85 1.73-1.85 1.9-3 .5Zm1147 445c.58-1.27 1.24-1.27 2 0-.47.96-1.14.96-2 0Zm3864 3c.58-1.27 1.24-1.27 2 0-.47.96-1.14.96-2 0Z" style="opacity:.743"/><path fill="#fefffe" d="M3199.5 205.5c1.33.67 1.33.67 0 0Z" style="opacity:.004"/><path fill="#fffebe" d="M3644.5 232.5c-.13-.74.04-1.4.5-2 .69.94.53 1.6-.5 2Z" style="opacity:.004"/><path fill="#fe0000" d="M2834.5 233.5c1.33.67 1.33.67 0 0Z" style="opacity:.004"/><path fill="#fefffe" d="M2864.5 242.5c1.33.67 1.33.67 0 0Z" style="opacity:.004"/><path fill="#feede0" d="M2834.5 234.5a26.1 26.1 0 0 0 9 8l4-5a21.7 21.7 0 0 1 6.5 7c3-3.87 5.66-3.53 8 1a7.06 7.06 0 0 1 2.5-2 12.7 12.7 0 0 0 2.5 4c.32-2.07 1.16-2.4 2.5-1l4.5 9a3.92 3.92 0 0 1 3.5-2 20.47 20.47 0 0 1 4.5 7 4.39 4.39 0 0 1 3.5-1c.05 2.81.71 5.48 2 8-3.35 6.52-1.68 7.86 5 4 3.32 3.33 3.32 6.83 0 10.5 1.14.74 1.14 1.57 0 2.5 2.54 1.44 2.54 2.94 0 4.5 1.24 6.92 5.07 9.1 11.5 6.5l2.5 2.5a38.77 38.77 0 0 0-6 8.5 90.26 90.26 0 0 1 7 3.5c-3.41 1.75-4.08 3.92-2 6.5a50.4 50.4 0 0 1-4 5.5 7.32 7.32 0 0 1 3 2c-3.36 1.83-3.69 4-1 6.5-1.55.94-2.89 2.1-4 3.5a9.24 9.24 0 0 0 2 2.5c-1.67 1-3 2.33-4 4l2 2a169.5 169.5 0 0 1-15 9.5 15.91 15.91 0 0 1 5 6.5 112.15 112.15 0 0 0-11 5c2.21 2.83 2.04 5.17-.5 7l-1-1c-2.94.56-5.77 1.4-8.5 2.5a9.02 9.02 0 0 1 1.5 6.5 148.1 148.1 0 0 0-10.5-2c-1.05.18-2.05.51-3 1-1.82-1.94-3.82-2.6-6-2a4.33 4.33 0 0 0-2.5 3c-.18 2.73-.68 5.4-1.5 8a65.66 65.66 0 0 0-10.5-5 6.33 6.33 0 0 0-1.5 4 26.4 26.4 0 0 1-3.5 2 35.87 35.87 0 0 1-12.5-4 3.08 3.08 0 0 1-1 3l-6-5a4.33 4.33 0 0 0-2.5 3 32.36 32.36 0 0 1-10-9l-3 5a22.01 22.01 0 0 1-6-9c-2.68 5.4-4.85 5.24-6.5-.5-1.05-.5-2.05-.33-3 .5a10.29 10.29 0 0 1-1.5-4c-.41.46-.91.8-1.5 1a8.09 8.09 0 0 0-6-5.5 18.34 18.34 0 0 1-2.5-8.5 4.27 4.27 0 0 1-4.5 2 20.07 20.07 0 0 1 0-9.5c-1.97-.5-3.97-.66-6-.5-1.74-4.26-1.08-8.1 2-11.5l-3-1c.95-.72 1.12-1.55.5-2.5-2.14.57-4.64.9-7.5 1 1.76-2.9 2.59-5.9 2.5-9a6.8 6.8 0 0 1 4.5-3.5c-2.96-.84-3.3-1.84-1-3a54.63 54.63 0 0 0-7-2c-1.33-1-1.33-2 0-3l-2-1c1.78-1.67 2.11-3.5 1-5.5 1.8-4.3 4.8-7.47 9-9.5a35.04 35.04 0 0 0-7-4.5c3.24-3.94 6.74-7.6 10.5-11 1.87 1.17 3.37.67 4.5-1.5a22.46 22.46 0 0 0-5-8.5 41.24 41.24 0 0 1 13-6.5 10.08 10.08 0 0 1-2.5-7.5c3.05.75 6.05 1.08 9 1 .62-.95.45-1.78-.5-2.5a34.6 34.6 0 0 1 13-2.5 12.27 12.27 0 0 1-.5-8 40.1 40.1 0 0 1 12 1 18.12 18.12 0 0 0 5-3c.77.15 1.44.48 2 1 .36-2.1 1.03-4.1 2-6a74.98 74.98 0 0 1 8 4 22.77 22.77 0 0 0 3-7l1 2c1.39-3.77 2.39-3.77 3 0 1.57-.56 2.9.1 4 2a4.95 4.95 0 0 1 2.5-4Z" style="opacity:.738"/><path fill="#fefffe" d="M2877.5 252.5c1.33.67 1.33.67 0 0Z" style="opacity:.004"/><path fill="#fe0000" d="M2385.5 265.5c-.67-1.33-.67-1.33 0 0ZM2075.5 266.5c1.33.67 1.33.67 0 0ZM6249.5 268.5c-.67-1.33-.67-1.33 0 0ZM2002.5 269.5c1.33.67 1.33.67 0 0ZM5939.5 269.5c1.33.67 1.33.67 0 0Z" style="opacity:.004"/><path fill="#feede0" d="M1324.5 327.5a568.04 568.04 0 0 0-4 6l4 4-5 8c1.63 1.49 3.29 2.99 5 4.5-2.79.74-4.29 2.58-4.5 5.5l-1-1a18.2 18.2 0 0 1-2.5 9 9.24 9.24 0 0 1 2 2.5 149.65 149.65 0 0 1-6 7.5l1 2a16.56 16.56 0 0 0-3 9h-3a6.8 6.8 0 0 0 1 4 34.24 34.24 0 0 1-8 1.5 36.53 36.53 0 0 1 2 4.5c-2.07.63-3.9 1.63-5.5 3a4.39 4.39 0 0 0-3.5-1 9.13 9.13 0 0 0 1 5c-.31.8-.81 1.48-1.5 2a7.97 7.97 0 0 0-6.5-.5 8.83 8.83 0 0 1-3 4.5 27.84 27.84 0 0 0-7.5-1 20.08 20.08 0 0 1-1.5 6l-6-3a4.86 4.86 0 0 0-1 4 11.2 11.2 0 0 1-6-2 19.98 19.98 0 0 1-3.5 4 19.65 19.65 0 0 0-8-6 26.66 26.66 0 0 1-3.5 6 8.17 8.17 0 0 0-4-2.5l1-1a40.75 40.75 0 0 0-9.5-3.5 19.98 19.98 0 0 0-3.5 4 17.33 17.33 0 0 0-11-8 3.6 3.6 0 0 0-1.5 1c-2.49-3.67-5.99-4.84-10.5-3.5a18.06 18.06 0 0 1-4.5-5.5l-3 2a7.78 7.78 0 0 0-2.5-5.5c.95-.72 1.12-1.55.5-2.5a7.39 7.39 0 0 0-4.5 0v-4h-4a4.38 4.38 0 0 1 1-3.5 13.93 13.93 0 0 1-6-5 12.7 12.7 0 0 0 1-6c-1.63-.5-3.3-.66-5-.5-.4-2.98.27-5.65 2-8-.35-1.2-.85-1.2-1.5 0-1.41-1.86-1.91-3.7-1.5-5.5-3.99.64-4.82-.86-2.5-4.5a9.4 9.4 0 0 1 2.5-1.5c-2.42-1.67-2.42-3.5 0-5.5.72-4.68 1.38-9.35 2-14a47.28 47.28 0 0 0-7-6c3.4-.21 6.4-1.88 9-5a16.4 16.4 0 0 1 4-7.5c-.98-1.78-.65-3.44 1-5-1.43-1.71-1.09-3.05 1-4-.56-1.57.11-2.9 2-4-.86-2.32.14-3.49 3-3.5a9.13 9.13 0 0 0-1-5c1.51-1.25 3.01-1.25 4.5 0a51.1 51.1 0 0 1 0-7c1.77 1.92 3.94 2.42 6.5 1.5a5.49 5.49 0 0 1-1.5-5.5 12.2 12.2 0 0 0 6.5 1v-4a14.36 14.36 0 0 1 9-.5 9.05 9.05 0 0 1-1-5.5c2.4-.1 4.24.9 5.5 3a7.85 7.85 0 0 0 3-6l5 3c.28-2.39 1.28-3.05 3-2 1.67-1 3-2.33 4-4 3.84 3.08 5.84 2.08 6-3 3.15 2.43 6.32 4.76 9.5 7a26.66 26.66 0 0 0 3.5-6 56.6 56.6 0 0 1 9.5 8.5c1.28.68 2.45.52 3.5-.5 2.72 2.82 5.05 2.49 7-1a76.5 76.5 0 0 1 8.5 8 8.88 8.88 0 0 0 4-3 12.42 12.42 0 0 1 2.5 4c.41-.46.91-.8 1.5-1 .82 1.6 1.49 3.27 2 5 1.94.66 3.77 1 5.5 1-.85 6.14 1.15 7.8 6 5 .5 2.65.66 5.31.5 8a6.85 6.85 0 0 0 4-1c.81.3 1.47.8 2 1.5a27.5 27.5 0 0 0-1 9c6.13-1.17 7.47 1 4 6.5 2.12.65 4.12 1.48 6 2.5a16.4 16.4 0 0 0-4 7.5c2.09 1.02 4.09 2.02 6 3Z" style="opacity:.71"/><path fill="#feff00" d="M6358.5 271.5c1.33.67 1.33.67 0 0Z" style="opacity:.004"/><path fill="#fe0000" d="M5866.5 272.5c1.33.67 1.33.67 0 0Z" style="opacity:.004"/><path fill="#feede0" d="M5188.5 330.5a568.04 568.04 0 0 0-4 6l4 4-5 8c1.63 1.49 3.29 2.99 5 4.5-2.79.74-4.29 2.58-4.5 5.5l-1-1a18.2 18.2 0 0 1-2.5 9 9.24 9.24 0 0 1 2 2.5 149.65 149.65 0 0 1-6 7.5l1 2a16.56 16.56 0 0 0-3 9h-3a6.8 6.8 0 0 0 1 4 34.24 34.24 0 0 1-8 1.5 36.53 36.53 0 0 1 2 4.5c-2.07.63-3.9 1.63-5.5 3a4.39 4.39 0 0 0-3.5-1 9.13 9.13 0 0 0 1 5c-.31.8-.81 1.48-1.5 2a7.97 7.97 0 0 0-6.5-.5 8.83 8.83 0 0 1-3 4.5 27.84 27.84 0 0 0-7.5-1 20.08 20.08 0 0 1-1.5 6l-6-3a4.86 4.86 0 0 0-1 4 11.2 11.2 0 0 1-6-2 19.98 19.98 0 0 1-3.5 4 19.65 19.65 0 0 0-8-6 26.66 26.66 0 0 1-3.5 6 8.17 8.17 0 0 0-4-2.5l1-1a40.75 40.75 0 0 0-9.5-3.5 19.98 19.98 0 0 0-3.5 4 17.33 17.33 0 0 0-11-8 3.6 3.6 0 0 0-1.5 1c-2.49-3.67-5.99-4.84-10.5-3.5a18.06 18.06 0 0 1-4.5-5.5l-3 2a7.78 7.78 0 0 0-2.5-5.5c.95-.72 1.12-1.55.5-2.5a7.39 7.39 0 0 0-4.5 0v-4h-4a4.38 4.38 0 0 1 1-3.5 13.93 13.93 0 0 1-6-5 12.7 12.7 0 0 0 1-6c-1.63-.5-3.3-.66-5-.5-.4-2.98.27-5.65 2-8-.35-1.2-.85-1.2-1.5 0-1.41-1.86-1.91-3.7-1.5-5.5-3.99.64-4.82-.86-2.5-4.5a9.4 9.4 0 0 1 2.5-1.5c-2.42-1.67-2.42-3.5 0-5.5.72-4.68 1.38-9.35 2-14a47.28 47.28 0 0 0-7-6c3.4-.21 6.4-1.88 9-5a16.4 16.4 0 0 1 4-7.5c-.98-1.78-.65-3.44 1-5-1.43-1.71-1.09-3.05 1-4-.56-1.57.11-2.9 2-4-.86-2.32.14-3.49 3-3.5a9.13 9.13 0 0 0-1-5c1.51-1.25 3.01-1.25 4.5 0a51.1 51.1 0 0 1 0-7c1.77 1.92 3.94 2.42 6.5 1.5a5.49 5.49 0 0 1-1.5-5.5 12.2 12.2 0 0 0 6.5 1v-4a14.36 14.36 0 0 1 9-.5 9.05 9.05 0 0 1-1-5.5c2.4-.1 4.24.9 5.5 3a7.85 7.85 0 0 0 3-6l5 3c.28-2.39 1.28-3.05 3-2 1.67-1 3-2.33 4-4 3.84 3.08 5.84 2.08 6-3 3.15 2.43 6.32 4.76 9.5 7a26.66 26.66 0 0 0 3.5-6 56.6 56.6 0 0 1 9.5 8.5c1.28.68 2.45.52 3.5-.5 2.72 2.82 5.05 2.49 7-1a76.5 76.5 0 0 1 8.5 8 8.88 8.88 0 0 0 4-3 12.42 12.42 0 0 1 2.5 4c.41-.46.91-.8 1.5-1 .82 1.6 1.49 3.27 2 5 1.94.66 3.77 1 5.5 1-.85 6.14 1.15 7.8 6 5 .5 2.65.66 5.31.5 8a6.85 6.85 0 0 0 4-1c.81.3 1.47.8 2 1.5a27.5 27.5 0 0 0-1 9c6.13-1.17 7.47 1 4 6.5 2.12.65 4.12 1.48 6 2.5a16.4 16.4 0 0 0-4 7.5c2.09 1.02 4.09 2.02 6 3Z" style="opacity:.71"/><path fill="#feece0" d="M2075.5 267.5c2.71 4.07 6.21 6.4 10.5 7a32.14 32.14 0 0 0 9.5 8 351.03 351.03 0 0 0 13 16.5c-.71 1.34-.38 2.68 1 4-1.13 1.02-.8 1.68 1 2l-1 1a33.68 33.68 0 0 1 4 14.5c-.17 1 .16 1.66 1 2 .67 3.34.67 6.5 0 9.5.93 1.2 1.6 2.53 2 4a30.6 30.6 0 0 0-3 8c.88.7 1.55 1.54 2 2.5-3.09 6.89-6.42 14.22-10 22-1.55.94-2.89 2.1-4 3.5.14.77.48 1.44 1 2a22.3 22.3 0 0 1-10 7 4.38 4.38 0 0 0-1 3.5h-3a10.8 10.8 0 0 1-2 6c-2.54.34-4.7 1.34-6.5 3l-1-2a6.64 6.64 0 0 0-3 5l-3-2c-3.98 3.51-8.48 4.51-13.5 3v3a29.3 29.3 0 0 1-6.5-2 18.12 18.12 0 0 0-5 3 42.04 42.04 0 0 0-6.5-4c-1.33 1.33-2.67 1.33-4 0a15.07 15.07 0 0 0-3.5 3c-2.5-3.1-5.5-4.43-9-4l-5-2c-1.36.76-2.53.26-3.5-1.5a39.89 39.89 0 0 0-11-4.5 23.41 23.41 0 0 0-3-3.5 31.53 31.53 0 0 1-7-4c1.14-.74 1.14-1.57 0-2.5a93.27 93.27 0 0 1-11-12c-1.14-.93-1.14-1.76 0-2.5-3.27-1.53-4.27-3.86-3-7-3.11-2.07-4.45-5.24-4-9.5-3.96-.55-3.96-1.39 0-2.5a6.42 6.42 0 0 1-.5-4.5 26.4 26.4 0 0 1-3.5-2 7.2 7.2 0 0 0 2-6 3.09 3.09 0 0 1-3-1c4.07-3.52 4.4-7.02 1-10.5l4-5v-8a67.83 67.83 0 0 0 9-18.5 205.94 205.94 0 0 0 16.5-18l1 1a8.78 8.78 0 0 1 8.5-4.5 9.25 9.25 0 0 0 1.5-2.5l1 1c2.2-2.2 4.7-4.03 7.5-5.5 2.72 1.07 4.89.24 6.5-2.5 1.11 1.21 2.28 1.21 3.5 0 .69.52 1.19 1.2 1.5 2 .87-4.9 2.54-5.22 5-1 1.25-3.32 2.92-3.65 5-1a6.82 6.82 0 0 1 1.5-3 32.36 32.36 0 0 0 5.5 4 15.07 15.07 0 0 1 3.5-3 15.85 15.85 0 0 1 5.5 6l1-1c2.61.77 5.11 1.77 7.5 3 1.53-.03 2.7-.7 3.5-2a7.67 7.67 0 0 0 3.5 5ZM5939.5 270.5c2.71 4.07 6.21 6.4 10.5 7a32.14 32.14 0 0 0 9.5 8 351.03 351.03 0 0 0 13 16.5c-.71 1.34-.38 2.68 1 4-1.13 1.02-.8 1.68 1 2l-1 1a33.68 33.68 0 0 1 4 14.5c-.17 1 .16 1.66 1 2 .67 3.34.67 6.5 0 9.5.93 1.2 1.6 2.53 2 4a30.6 30.6 0 0 0-3 8c.88.7 1.55 1.54 2 2.5-3.09 6.89-6.42 14.22-10 22-1.55.94-2.89 2.1-4 3.5.14.77.48 1.44 1 2a22.3 22.3 0 0 1-10 7 4.38 4.38 0 0 0-1 3.5h-3a10.8 10.8 0 0 1-2 6c-2.54.34-4.7 1.34-6.5 3l-1-2a6.64 6.64 0 0 0-3 5l-3-2c-3.98 3.51-8.48 4.51-13.5 3v3a29.3 29.3 0 0 1-6.5-2 18.12 18.12 0 0 0-5 3 42.04 42.04 0 0 0-6.5-4c-1.33 1.33-2.67 1.33-4 0a15.07 15.07 0 0 0-3.5 3c-2.5-3.1-5.5-4.43-9-4l-5-2c-1.36.76-2.53.26-3.5-1.5a39.89 39.89 0 0 0-11-4.5 23.41 23.41 0 0 0-3-3.5 31.53 31.53 0 0 1-7-4c1.14-.74 1.14-1.57 0-2.5a93.27 93.27 0 0 1-11-12c-1.14-.93-1.14-1.76 0-2.5-3.27-1.53-4.27-3.86-3-7-3.11-2.07-4.45-5.24-4-9.5-3.96-.55-3.96-1.39 0-2.5a6.42 6.42 0 0 1-.5-4.5 26.4 26.4 0 0 1-3.5-2 7.2 7.2 0 0 0 2-6 3.09 3.09 0 0 1-3-1c4.07-3.52 4.4-7.02 1-10.5l4-5v-8a67.83 67.83 0 0 0 9-18.5 205.94 205.94 0 0 0 16.5-18l1 1a8.78 8.78 0 0 1 8.5-4.5 9.25 9.25 0 0 0 1.5-2.5l1 1c2.2-2.2 4.7-4.03 7.5-5.5 2.72 1.07 4.89.24 6.5-2.5 1.11 1.21 2.28 1.21 3.5 0 .69.52 1.19 1.2 1.5 2 .87-4.9 2.54-5.23 5-1 1.25-3.32 2.92-3.65 5-1a6.82 6.82 0 0 1 1.5-3 32.36 32.36 0 0 0 5.5 4 15.07 15.07 0 0 1 3.5-3 15.85 15.85 0 0 1 5.5 6l1-1c2.61.77 5.11 1.77 7.5 3 1.53-.03 2.7-.7 3.5-2a7.67 7.67 0 0 0 3.5 5Z" style="opacity:.649"/><path fill="#fffebe" d="M2371.5 281.5c-1.03-.4-1.19-1.06-.5-2 .46.6.63 1.26.5 2ZM6235.5 284.5c-1.03-.4-1.19-1.06-.5-2 .46.6.63 1.26.5 2Z" style="opacity:.004"/><path fill="#feff00" d="M1986.5 289.5c-.67-1.33-.67-1.33 0 0Z" style="opacity:.004"/><path fill="#fe0000" d="M1570.5 290.5c-.67-1.33-.67-1.33 0 0Z" style="opacity:.004"/><path d="M2105.5 291.5c1.33.67 1.33.67 0 0Z" style="opacity:.004"/><path fill="#feff00" d="M5850.5 292.5c-.67-1.33-.67-1.33 0 0Z" style="opacity:.004"/><path fill="#fe0000" d="M5434.5 293.5c-.67-1.33-.67-1.33 0 0Z" style="opacity:.004"/><path fill="#fefffe" d="M6356.5 293.5c1.33.67 1.33.67 0 0Z" style="opacity:.004"/><path d="M5969.5 294.5c1.33.67 1.33.67 0 0Z" style="opacity:.004"/><path fill="#fefffe" d="M1565.5 297.5c-.67-1.33-.67-1.33 0 0ZM5429.5 300.5c-.67-1.33-.67-1.33 0 0ZM6353.5 302.5c1.03.4 1.19 1.06.5 2a2.45 2.45 0 0 1-.5-2Z" style="opacity:.004"/><path fill="#fe0000" d="M6352.5 306.5c1.33.67 1.33.67 0 0Z" style="opacity:.004"/><path fill="#fffeec" d="M6349.5 308.5a4.94 4.94 0 0 1 3 .5c-1.17.5-2 1.33-2.5 2.5a4.95 4.95 0 0 1-.5-3Z" style="opacity:.004"/><path fill="#ffbfa9" d="M6345.5 315.5c.4-1.02 1.06-1.2 2-.5-.59.46-1.26.63-2 .5Z" style="opacity:.004"/><path fill="#ffc1f7" d="M2113.5 315.5c1.03.4 1.19 1.06.5 2a2.45 2.45 0 0 1-.5-2Z" style="opacity:.004"/><path fill="#fe0000" d="M4083.5 316.5c1.33.67 1.33.67 0 0Z" style="opacity:.004"/><path fill="#ffc1f7" d="M5977.5 318.5c1.03.4 1.19 1.06.5 2a2.45 2.45 0 0 1-.5-2Z" style="opacity:.004"/><path fill="#fe0000" d="M2113.5 320.5c2.2-.1 2.53.57 1 2-.84-.34-1.17-1-1-2Z" style="opacity:.004"/><path fill="#fffebe" d="M6340.5 321.5v-1c2.67.33 2.67.67 0 1Z" style="opacity:.004"/><path fill="#fe0000" d="M5977.5 323.5c2.2-.1 2.53.57 1 2-.84-.34-1.17-1-1-2ZM1324.5 327.5c1.33.67 1.33.67 0 0ZM844.5 330.5c-.67-1.33-.67-1.33 0 0ZM5188.5 330.5c1.33.67 1.33.67 0 0Z" style="opacity:.004"/><path fill="#fefffe" d="M6335.5 330.5c1.33.67 1.33.67 0 0ZM6334.5 331.5h1c-.19.67-.52.67-1 0Z" style="opacity:.004"/><path fill="#fe0000" d="M4708.5 333.5c-.67-1.33-.67-1.33 0 0Z" style="opacity:.004"/><path fill="#fefffe" d="M6332.5 333.5c1.33.67 1.33.67 0 0ZM6332.5 334.5c-.67.67-.67.67 0 0Z" style="opacity:.004"/><path fill="#feece0" d="M623.5 365.5c-1.26 1.12-.92 1.79 1 2a9.6 9.6 0 0 0 6 1 123.37 123.37 0 0 1 2.5 17c1.84 3.55 3.67 7.05 5.5 10.5a14.49 14.49 0 0 0-1 11.5c-4.1 8-9.1 15.5-15 22.5-.95.48-1.95.65-3 .5l-3 8c-2.23 1.88-4.57 2.71-7 2.5a20.48 20.48 0 0 1-3 5.5 41.65 41.65 0 0 1-15 4.5c1.39.89 1.22 1.39-.5 1.5-.9-.24-1.74-.58-2.5-1-.06-.54-.4-.88-1-1-2.52 2-5.35 3.34-8.5 4-1-1.33-2-1.33-3 0l-2-2a15.1 15.1 0 0 1-6 3c-1.39-3.65-3.39-3.99-6-1a14.75 14.75 0 0 0-8 0c-2.09-.8-4.09-1.8-6-3-2.1 1-3.76.33-5-2-.41.46-.91.8-1.5 1a74.24 74.24 0 0 0-6.5-5c-1.94.32-3.44-.68-4.5-3-3.51-.14-5.85-1.81-7-5a25.87 25.87 0 0 1-5-3 11.8 11.8 0 0 0-5-7.5l1-1a32.06 32.06 0 0 0-4-2.5 12.8 12.8 0 0 0-3-6c.2-.59.54-1.09 1-1.5a908.55 908.55 0 0 1-6-18.5c2-3.35 2-6.51 0-9.5a6.18 6.18 0 0 0 0-6.5 99.87 99.87 0 0 0 6-12.5c.17-2.26.17-4.6 0-7a8.3 8.3 0 0 0 4-6.5h3c.1-2.28.94-4.28 2.5-6 5.44-4.44 10.6-9.27 15.5-14.5a78.3 78.3 0 0 0 14-7c6.52-1.4 12.85-2.57 19-3.5 2.73.52 5.23 1.52 7.5 3a3.63 3.63 0 0 0 2-2l2 2h5c5.45 2.76 11.29 5.6 17.5 8.5a483.7 483.7 0 0 1 22.5 23.5c-.26 2.1-.09 4.1.5 6Z" style="opacity:.581"/><path fill="#fefffe" d="M184.5 343.5c-.67-1.33-.67-1.33 0 0ZM184.5 343.5a4.93 4.93 0 0 1 3 .5c-1.25.74-2.25.57-3-.5Z" style="opacity:.004"/><path fill="#feece0" d="M4487.5 368.5c-1.26 1.12-.92 1.79 1 2a9.6 9.6 0 0 0 6 1 124.14 124.14 0 0 1 2.5 17c1.84 3.55 3.68 7.05 5.5 10.5a14.5 14.5 0 0 0-1 11.5c-4.09 8-9.09 15.5-15 22.5-.95.48-1.95.65-3 .5l-3 8c-2.23 1.88-4.57 2.71-7 2.5a20.6 20.6 0 0 1-3 5.5 41.68 41.68 0 0 1-15 4.5c1.39.89 1.22 1.39-.5 1.5-.9-.24-1.74-.58-2.5-1-.06-.54-.39-.88-1-1a20.1 20.1 0 0 1-8.5 4c-1-1.33-2-1.33-3 0l-2-2a15.06 15.06 0 0 1-6 3c-1.39-3.65-3.39-3.99-6-1a14.75 14.75 0 0 0-8 0c-2.09-.8-4.09-1.8-6-3-2.09 1-3.76.33-5-2-.41.46-.91.8-1.5 1a74.4 74.4 0 0 0-6.5-5c-1.94.32-3.44-.68-4.5-3-3.51-.14-5.85-1.81-7-5a25.9 25.9 0 0 1-5-3 11.82 11.82 0 0 0-5-7.5l1-1a32 32 0 0 0-4-2.5 12.8 12.8 0 0 0-3-6c.21-.59.54-1.09 1-1.5a872.66 872.66 0 0 1-6-18.5c2-3.35 2-6.51 0-9.5a6.19 6.19 0 0 0 0-6.5 98.76 98.76 0 0 0 6-12.5c.17-2.26.17-4.6 0-7a8.29 8.29 0 0 0 4-6.5h3a9.34 9.34 0 0 1 2.5-6 157.93 157.93 0 0 0 15.5-14.5 78.23 78.23 0 0 0 14-7c6.52-1.4 12.85-2.57 19-3.5a20.6 20.6 0 0 1 7.5 3 3.63 3.63 0 0 0 2-2l2 2h5c5.45 2.76 11.29 5.6 17.5 8.5a481.8 481.8 0 0 1 22.5 23.5c-.26 2.1-.09 4.1.5 6Z" style="opacity:.581"/><path fill="#fefffe" d="M2115.5 346.5c1.33.67 1.33.67 0 0Z" style="opacity:.004"/><path fill="#fe0000" d="M2312.5 347.5c1.33.67 1.33.67 0 0Z" style="opacity:.004"/><path fill="#fefffe" d="M5979.5 349.5c1.33.67 1.33.67 0 0Z" style="opacity:.004"/><path fill="#fe0000" d="M6176.5 350.5c1.33.67 1.33.67 0 0ZM623.5 365.5l1 2c-1.92-.21-2.26-.88-1-2ZM4487.5 368.5l1 2c-1.92-.21-2.26-.88-1-2Z" style="opacity:.004"/><path fill="#fefffe" d="M3241.5 377.5c-.67.67-.67.67 0 0ZM2433.5 384.5c1.33.67 1.33.67 0 0Z" style="opacity:.004"/><path fill="#fe0000" d="M2001.5 386.5c1.33.67 1.33.67 0 0Z" style="opacity:.004"/><path fill="#fefffe" d="M6297.5 387.5c1.33.67 1.33.67 0 0Z" style="opacity:.004"/><path fill="#fe0000" d="M5865.5 389.5c1.33.67 1.33.67 0 0Z" style="opacity:.004"/><path fill="#feff00" d="M2080.5 394.5c1.33.67 1.33.67 0 0ZM5944.5 397.5c1.33.67 1.33.67 0 0ZM1209.5 403.5c1.33.67 1.33.67 0 0ZM5073.5 406.5c1.33.67 1.33.67 0 0Z" style="opacity:.004"/><path fill="#fefffe" d="M2667.5 418.5c1.33.67 1.33.67 0 0ZM6118.5 422.5c1.33.67 1.33.67 0 0ZM1066.5 424.5c1.33.67 1.33.67 0 0ZM4930.5 427.5c1.33.67 1.33.67 0 0Z" style="opacity:.004"/><path fill="#feff00" d="M6113.5 428.5c1.33.67 1.33.67 0 0Z" style="opacity:.004"/><path fill="#fefffe" d="M935.5 435.5c-.67.67-.67.67 0 0ZM4799.5 438.5c-.67.67-.67.67 0 0Z" style="opacity:.004"/><path fill="#feff00" d="M588.5 451.5c-.67.67-.67.67 0 0ZM4452.5 454.5c-.67.67-.67.67 0 0Z" style="opacity:.004"/><path fill="#fefffe" d="M2548.5 455.5c-.67.67-.67.67 0 0Z" style="opacity:.004"/><path fill="#fe0000" d="M3826.5 457.5c1.33.67 1.33.67 0 0Z" style="opacity:.004"/><path fill="#ffe03d" d="M242.5 489.5c-1 .17-1.66-.16-2-1 .8-2.3 1.47-1.96 2 1Z" style="opacity:.004"/><path fill="#fefffe" d="M2308.5 534.5c1.33.67 1.33.67 0 0ZM6172.5 537.5c1.33.67 1.33.67 0 0Z" style="opacity:.004"/><path fill="#fe0000" d="M291.5 545.5h1c-.19.67-.52.67-1 0ZM685.5 545.5c1.33.67 1.33.67 0 0Z" style="opacity:.004"/><path fill="#fefffe" d="M1965.5 548.5c1.33.67 1.33.67 0 0Z" style="opacity:.004"/><path fill="#fe0000" d="M4155.5 548.5h1c-.19.67-.52.67-1 0ZM4549.5 548.5c1.33.67 1.33.67 0 0Z" style="opacity:.004"/><path fill="#fefffe" d="M5829.5 551.5c1.33.67 1.33.67 0 0Z" style="opacity:.004"/><path fill="#feece0" d="M3889.5 638.5c1.26-1.12.92-1.79-1-2a9.6 9.6 0 0 0-6-1 124.14 124.14 0 0 1-2.5-17c-1.84-3.55-3.68-7.05-5.5-10.5a14.5 14.5 0 0 0 1-11.5c4.09-8 9.09-15.5 15-22.5a4.94 4.94 0 0 1 3-.5l3-8c2.23-1.88 4.57-2.71 7-2.5a20.6 20.6 0 0 1 3-5.5 41.68 41.68 0 0 1 15-4.5c-1.39-.89-1.22-1.39.5-1.5.9.24 1.74.58 2.5 1 .06.54.39.88 1 1a20.1 20.1 0 0 1 8.5-4c1 1.33 2 1.33 3 0l2 2a15.06 15.06 0 0 1 6-3c1.39 3.65 3.39 3.99 6 1 2.47.74 5.13.74 8 0 2.09.8 4.09 1.8 6 3 2.09-1 3.76-.33 5 2 .41-.46.91-.8 1.5-1a74.4 74.4 0 0 0 6.5 5c1.94-.32 3.44.68 4.5 3 3.51.14 5.85 1.81 7 5a25.9 25.9 0 0 1 5 3 11.82 11.82 0 0 0 5 7.5l-1 1a32 32 0 0 0 4 2.5 12.8 12.8 0 0 0 3 6 3.63 3.63 0 0 1-1 1.5 872.66 872.66 0 0 1 6 18.5c-2 3.35-2 6.51 0 9.5a6.19 6.19 0 0 0 0 6.5 98.76 98.76 0 0 0-6 12.5 48.1 48.1 0 0 0 0 7 8.29 8.29 0 0 0-4 6.5h-3a9.34 9.34 0 0 1-2.5 6 157.93 157.93 0 0 0-15.5 14.5 78.23 78.23 0 0 0-14 7 306.42 306.42 0 0 1-19 3.5 20.6 20.6 0 0 1-7.5-3 3.63 3.63 0 0 0-2 2l-2-2h-5a639.55 639.55 0 0 0-17.5-8.5 481.8 481.8 0 0 1-22.5-23.5c.26-2.1.09-4.1-.5-6Z" style="opacity:.581"/><path fill="#feff00" d="M3924.5 551.5c1.33.67 1.33.67 0 0ZM6009.5 557.5c-.67-1.33-.67-1.33 0 0Z" style="opacity:.004"/><path fill="#fefffe" d="M3577.5 567.5c1.33.67 1.33.67 0 0Z" style="opacity:.004"/><path d="M5993.5 576.5c-.67-1.33-.67-1.33 0 0Z" style="opacity:.004"/><path fill="#fefffe" d="M3446.5 578.5c-.67.67-.67.67 0 0ZM1845.5 584.5c-.67.67-.67.67 0 0ZM5709.5 587.5c-.67.67-.67.67 0 0Z" style="opacity:.004"/><path fill="#feede0" d="M3188.5 676.5c1.31-1.93 2.64-3.93 4-6l-4-4 5-8a390.22 390.22 0 0 0-5-4.5c2.79-.74 4.29-2.58 4.5-5.5l1 1c.06-3.26.9-6.26 2.5-9a9.24 9.24 0 0 1-2-2.5c1.91-2.55 3.91-5.05 6-7.5l-1-2a16.56 16.56 0 0 0 3-9h3a6.8 6.8 0 0 0-1-4 34.24 34.24 0 0 1 8-1.5 36.53 36.53 0 0 1-2-4.5c2.07-.63 3.9-1.63 5.5-3a4.39 4.39 0 0 0 3.5 1 9.13 9.13 0 0 0-1-5c.31-.8.81-1.48 1.5-2a7.97 7.97 0 0 0 6.5.5 8.83 8.83 0 0 1 3-4.5c2.57.69 5.07 1.02 7.5 1 .19-2.08.69-4.08 1.5-6l6 3a4.86 4.86 0 0 0 1-4c2.18.09 4.18.75 6 2a19.98 19.98 0 0 1 3.5-4 19.65 19.65 0 0 0 8 6 26.66 26.66 0 0 1 3.5-6 8.17 8.17 0 0 0 4 2.5l-1 1a40.75 40.75 0 0 0 9.5 3.5 19.98 19.98 0 0 0 3.5-4 17.33 17.33 0 0 0 11 8 3.6 3.6 0 0 0 1.5-1c2.49 3.67 5.99 4.84 10.5 3.5a18.06 18.06 0 0 1 4.5 5.5l3-2a7.78 7.78 0 0 0 2.5 5.5c-.95.72-1.12 1.55-.5 2.5 1.3.47 2.8.47 4.5 0v4h4a4.38 4.38 0 0 1-1 3.5 13.93 13.93 0 0 1 6 5 12.7 12.7 0 0 0-1 6c1.63.5 3.3.66 5 .5.4 2.98-.27 5.65-2 8 .35 1.2.85 1.2 1.5 0 1.41 1.86 1.91 3.7 1.5 5.5 3.99-.64 4.82.86 2.5 4.5a9.4 9.4 0 0 1-2.5 1.5c2.42 1.67 2.42 3.5 0 5.5-.72 4.68-1.38 9.35-2 14a47.28 47.28 0 0 0 7 6c-3.4.21-6.4 1.88-9 5a16.4 16.4 0 0 1-4 7.5c.98 1.78.65 3.45-1 5 1.43 1.71 1.09 3.05-1 4 .56 1.57-.11 2.9-2 4 .86 2.32-.14 3.49-3 3.5a9.13 9.13 0 0 0 1 5c-1.51 1.25-3.01 1.25-4.5 0a51.1 51.1 0 0 1 0 7c-1.77-1.92-3.94-2.42-6.5-1.5a5.49 5.49 0 0 1 1.5 5.5 12.2 12.2 0 0 0-6.5-1v4a14.36 14.36 0 0 1-9 .5 9.05 9.05 0 0 1 1 5.5c-2.4.1-4.24-.9-5.5-3a7.85 7.85 0 0 0-3 6l-5-3c-.28 2.39-1.28 3.05-3 2-1.67 1-3 2.33-4 4-3.84-3.08-5.84-2.08-6 3a278.42 278.42 0 0 0-9.5-7 26.66 26.66 0 0 0-3.5 6 56.6 56.6 0 0 1-9.5-8.5c-1.28-.68-2.45-.52-3.5.5-2.72-2.82-5.05-2.49-7 1a76.5 76.5 0 0 1-8.5-8 8.88 8.88 0 0 0-4 3 12.42 12.42 0 0 1-2.5-4c-.41.46-.91.8-1.5 1a29.24 29.24 0 0 1-2-5c-1.94-.66-3.77-1-5.5-1 .85-6.14-1.15-7.8-6-5-.5-2.65-.66-5.31-.5-8a6.85 6.85 0 0 0-4 1c-.81-.3-1.47-.8-2-1.5a27.5 27.5 0 0 0 1-9c-6.13 1.17-7.47-1-4-6.5a32.68 32.68 0 0 1-6-2.5 16.4 16.4 0 0 0 4-7.5 310.45 310.45 0 0 1-6-3Z" style="opacity:.71"/><path fill="#feff00" d="M3302.5 599.5c1.33.67 1.33.67 0 0ZM2431.5 608.5c1.33.67 1.33.67 0 0Z" style="opacity:.004"/><path fill="#feece0" d="M2526.5 714.5a205.94 205.94 0 0 0-16.5 18l-1-1a8.78 8.78 0 0 1-8.5 4.5 9.25 9.25 0 0 0-1.5 2.5l-1-1c-2.2 2.2-4.7 4.03-7.5 5.5-2.72-1.07-4.89-.24-6.5 2.5-1.11-1.21-2.28-1.21-3.5 0a4.49 4.49 0 0 1-1.5-2c-.87 4.9-2.54 5.23-5 1-1.25 3.32-2.92 3.65-5 1a6.82 6.82 0 0 1-1.5 3 32.36 32.36 0 0 0-5.5-4 15.07 15.07 0 0 1-3.5 3 15.85 15.85 0 0 1-5.5-6l-1 1a43.63 43.63 0 0 1-7.5-3c-1.53.03-2.7.7-3.5 2a7.67 7.67 0 0 0-3.5-5c-2.71-4.07-6.21-6.4-10.5-7a32.14 32.14 0 0 0-9.5-8 351.03 351.03 0 0 0-13-16.5c.71-1.34.38-2.68-1-4 1.13-1.02.8-1.68-1-2l1-1a33.68 33.68 0 0 1-4-14.5c.17-1-.16-1.66-1-2-.67-3.34-.67-6.5 0-9.5-.93-1.2-1.6-2.53-2-4a30.6 30.6 0 0 0 3-8 7.04 7.04 0 0 1-2-2.5c3.09-6.89 6.42-14.22 10-22 1.55-.94 2.89-2.1 4-3.5a3.92 3.92 0 0 0-1-2 22.3 22.3 0 0 1 10-7 4.38 4.38 0 0 0 1-3.5h3c.07-2.2.73-4.2 2-6 2.54-.34 4.7-1.34 6.5-3l1 2a6.64 6.64 0 0 0 3-5l3 2c3.98-3.51 8.48-4.51 13.5-3v-3a29.3 29.3 0 0 1 6.5 2 18.12 18.12 0 0 0 5-3 42.04 42.04 0 0 0 6.5 4c1.33-1.33 2.67-1.33 4 0a15.07 15.07 0 0 0 3.5-3c2.5 3.1 5.5 4.43 9 4l5 2c1.36-.76 2.53-.26 3.5 1.5a39.89 39.89 0 0 0 11 4.5 23.41 23.41 0 0 0 3 3.5 31.53 31.53 0 0 1 7 4c-1.14.74-1.14 1.58 0 2.5 4.04 3.7 7.71 7.7 11 12 1.14.92 1.14 1.76 0 2.5 3.27 1.53 4.27 3.86 3 7 3.11 2.07 4.45 5.24 4 9.5 3.96.55 3.96 1.39 0 2.5.71 1.42.88 2.92.5 4.5a26.4 26.4 0 0 1 3.5 2 7.2 7.2 0 0 0-2 6 3.09 3.09 0 0 1 3 1c-4.07 3.52-4.4 7.02-1 10.5l-4 5v8a67.83 67.83 0 0 0-9 18.5Z" style="opacity:.649"/><path fill="#fe0000" d="M2510.5 616.5c1.33.67 1.33.67 0 0Z" style="opacity:.004"/><path fill="#fefffe" d="M2078.5 618.5c1.33.67 1.33.67 0 0Z" style="opacity:.004"/><path fill="#fe0000" d="M525.5 625.5c1.33.67 1.33.67 0 0Z" style="opacity:.004"/><path fill="#fefffe" d="M1271.5 625.5c1.33.67 1.33.67 0 0Z" style="opacity:.004"/><path fill="#feede0" d="M1678.5 769.5a26.1 26.1 0 0 0-9-8l-4 5a21.7 21.7 0 0 1-6.5-7c-3 3.87-5.66 3.53-8-1a7.06 7.06 0 0 1-2.5 2 12.7 12.7 0 0 0-2.5-4c-.32 2.07-1.16 2.4-2.5 1l-4.5-9a3.92 3.92 0 0 1-3.5 2 20.47 20.47 0 0 1-4.5-7 4.39 4.39 0 0 1-3.5 1 18.03 18.03 0 0 0-2-8c3.35-6.52 1.68-7.86-5-4-3.32-3.33-3.32-6.83 0-10.5-1.14-.74-1.14-1.58 0-2.5-2.54-1.44-2.54-2.94 0-4.5-1.24-6.92-5.07-9.1-11.5-6.5l-2.5-2.5a38.77 38.77 0 0 0 6-8.5 90.26 90.26 0 0 1-7-3.5c3.41-1.75 4.08-3.91 2-6.5a50.4 50.4 0 0 1 4-5.5 7.32 7.32 0 0 1-3-2c3.36-1.84 3.69-4 1-6.5 1.55-.94 2.89-2.1 4-3.5a9.24 9.24 0 0 0-2-2.5c1.67-1 3-2.33 4-4l-2-2a169.5 169.5 0 0 1 15-9.5 15.91 15.91 0 0 1-5-6.5c3.78-1.48 7.44-3.14 11-5-2.21-2.83-2.04-5.17.5-7l1 1c2.94-.56 5.77-1.4 8.5-2.5a9.02 9.02 0 0 1-1.5-6.5c3.44.79 6.94 1.45 10.5 2 1.05-.18 2.05-.51 3-1 1.82 1.94 3.82 2.6 6 2a4.33 4.33 0 0 0 2.5-3c.18-2.73.68-5.4 1.5-8a65.66 65.66 0 0 0 10.5 5 6.33 6.33 0 0 0 1.5-4 26.4 26.4 0 0 1 3.5-2c4.25.51 8.42 1.85 12.5 4a3.08 3.08 0 0 1 1-3l6 5a4.33 4.33 0 0 0 2.5-3 32.36 32.36 0 0 1 10 9l3-5a22.01 22.01 0 0 1 6 9c2.68-5.4 4.85-5.24 6.5.5 1.05.5 2.05.33 3-.5a10.29 10.29 0 0 1 1.5 4c.41-.46.91-.8 1.5-1a8.09 8.09 0 0 0 6 5.5 18.34 18.34 0 0 1 2.5 8.5 4.27 4.27 0 0 1 4.5-2c.76 3.29.76 6.46 0 9.5 1.97.5 3.97.66 6 .5 1.74 4.26 1.08 8.1-2 11.5l3 1c-.95.72-1.12 1.55-.5 2.5 2.14-.58 4.64-.9 7.5-1a16.17 16.17 0 0 0-2.5 9 6.8 6.8 0 0 1-4.5 3.5c2.96.84 3.3 1.84 1 3 2.29.82 4.62 1.49 7 2 1.33 1 1.33 2 0 3l2 1c-1.78 1.67-2.11 3.5-1 5.5-1.8 4.3-4.8 7.47-9 9.5a35.04 35.04 0 0 0 7 4.5c-3.24 3.93-6.74 7.6-10.5 11-1.87-1.17-3.37-.67-4.5 1.5 1.04 3.2 2.7 6.04 5 8.5a41.24 41.24 0 0 1-13 6.5 10.08 10.08 0 0 1 2.5 7.5 34.02 34.02 0 0 0-9-1c-.62.95-.45 1.78.5 2.5a34.6 34.6 0 0 1-13 2.5c1.06 2.6 1.23 5.27.5 8a40.1 40.1 0 0 1-12-1 18.12 18.12 0 0 0-5 3 3.95 3.95 0 0 1-2-1c-.36 2.1-1.03 4.1-2 6a74.98 74.98 0 0 1-8-4 22.77 22.77 0 0 0-3 7l-1-2c-1.39 3.77-2.39 3.77-3 0-1.57.56-2.9-.1-4-2a4.95 4.95 0 0 1-2.5 4Z" style="opacity:.738"/><path fill="#fe0000" d="M4389.5 628.5c1.33.67 1.33.67 0 0Z" style="opacity:.004"/><path fill="#fefffe" d="M5135.5 628.5c1.33.67 1.33.67 0 0Z" style="opacity:.004"/><path fill="#feede0" d="M5542.5 772.5a26.1 26.1 0 0 0-9-8l-4 5a21.7 21.7 0 0 1-6.5-7c-3 3.87-5.66 3.53-8-1a7.06 7.06 0 0 1-2.5 2 12.7 12.7 0 0 0-2.5-4c-.32 2.07-1.16 2.4-2.5 1l-4.5-9a3.92 3.92 0 0 1-3.5 2 20.47 20.47 0 0 1-4.5-7 4.39 4.39 0 0 1-3.5 1 18.03 18.03 0 0 0-2-8c3.35-6.52 1.68-7.86-5-4-3.32-3.33-3.32-6.83 0-10.5-1.14-.74-1.14-1.58 0-2.5-2.54-1.44-2.54-2.94 0-4.5-1.24-6.92-5.07-9.1-11.5-6.5l-2.5-2.5a38.77 38.77 0 0 0 6-8.5 90.26 90.26 0 0 1-7-3.5c3.41-1.75 4.08-3.91 2-6.5a50.4 50.4 0 0 1 4-5.5 7.32 7.32 0 0 1-3-2c3.36-1.84 3.69-4 1-6.5 1.55-.94 2.89-2.1 4-3.5a9.24 9.24 0 0 0-2-2.5c1.67-1 3-2.33 4-4l-2-2a169.5 169.5 0 0 1 15-9.5 15.91 15.91 0 0 1-5-6.5c3.78-1.48 7.44-3.14 11-5-2.21-2.83-2.04-5.17.5-7l1 1c2.94-.56 5.77-1.4 8.5-2.5a9.02 9.02 0 0 1-1.5-6.5c3.44.79 6.94 1.45 10.5 2 1.05-.18 2.05-.51 3-1 1.82 1.94 3.82 2.6 6 2a4.33 4.33 0 0 0 2.5-3c.18-2.73.68-5.4 1.5-8a65.66 65.66 0 0 0 10.5 5 6.33 6.33 0 0 0 1.5-4 26.4 26.4 0 0 1 3.5-2c4.25.51 8.42 1.85 12.5 4a3.08 3.08 0 0 1 1-3l6 5a4.33 4.33 0 0 0 2.5-3 32.36 32.36 0 0 1 10 9l3-5a22.01 22.01 0 0 1 6 9c2.68-5.4 4.85-5.24 6.5.5 1.05.5 2.05.33 3-.5a10.29 10.29 0 0 1 1.5 4c.41-.46.91-.8 1.5-1a8.09 8.09 0 0 0 6 5.5 18.34 18.34 0 0 1 2.5 8.5 4.27 4.27 0 0 1 4.5-2c.76 3.29.76 6.46 0 9.5 1.97.5 3.97.66 6 .5 1.74 4.26 1.08 8.1-2 11.5l3 1c-.95.72-1.12 1.55-.5 2.5 2.14-.58 4.64-.9 7.5-1a16.17 16.17 0 0 0-2.5 9 6.8 6.8 0 0 1-4.5 3.5c2.96.84 3.3 1.84 1 3 2.29.82 4.62 1.49 7 2 1.33 1 1.33 2 0 3l2 1c-1.78 1.67-2.11 3.5-1 5.5-1.8 4.3-4.8 7.47-9 9.5a35.04 35.04 0 0 0 7 4.5c-3.24 3.93-6.74 7.6-10.5 11-1.87-1.17-3.37-.67-4.5 1.5 1.04 3.2 2.7 6.04 5 8.5a41.24 41.24 0 0 1-13 6.5 10.08 10.08 0 0 1 2.5 7.5 34.02 34.02 0 0 0-9-1c-.62.95-.45 1.78.5 2.5a34.6 34.6 0 0 1-13 2.5c1.06 2.6 1.23 5.27.5 8a40.1 40.1 0 0 1-12-1 18.12 18.12 0 0 0-5 3 3.95 3.95 0 0 1-2-1c-.36 2.1-1.03 4.1-2 6a74.98 74.98 0 0 1-8-4 22.77 22.77 0 0 0-3 7l-1-2c-1.39 3.77-2.39 3.77-3 0-1.57.56-2.9-.1-4-2a4.95 4.95 0 0 1-2.5 4Z" style="opacity:.738"/><path fill="#fe0000" d="M3888.5 636.5c1.92.21 2.26.88 1 2l-1-2ZM2199.5 655.5c1.33.67 1.33.67 0 0Z" style="opacity:.004"/><path fill="#fefffe" d="M2397.5 657.5c-.67-1.33-.67-1.33 0 0Z" style="opacity:.004"/><path fill="#fe0000" d="M3668.5 673.5c1.33.67 1.33.67 0 0ZM3188.5 676.5c-.67-1.33-.67-1.33 0 0ZM2398.5 681.5c.84.34 1.17 1 1 2-2.2.1-2.53-.58-1-2Z" style="opacity:.004"/><path fill="#feff00" d="M2175.5 682.5h1c-.19.67-.52.67-1 0Z" style="opacity:.004"/><path fill="#feece0" d="M910.5 813.5a40.8 40.8 0 0 1-8-9l-4 3a39.45 39.45 0 0 0-6-4.5l1-1-3.5-3.5a4.6 4.6 0 0 1-4.5 2l-3-12a6.85 6.85 0 0 0-4 1c-2.1-1.12-2.43-2.62-1-4.5a20.43 20.43 0 0 1-5.5-1.5 23.23 23.23 0 0 1-1.5-9c.52-.7 1.2-1.2 2-1.5a28.2 28.2 0 0 1-4-1.5c-.79-3.2-.12-6.2 2-9-2.78.16-5.78-.17-9-1a20.48 20.48 0 0 0 3-5.5c-3.77-.61-3.77-1.61 0-3-2.4-.7-2.4-1.7 0-3l-3-1c.56-1.57-.1-2.9-2-4 1.7-1.4 2.2-3.24 1.5-5.5l2.5-2.5c-2.4-1.9-2.4-3.9 0-6a9.26 9.26 0 0 0-2-2.5c2.97-1.17 3.3-2.5 1-4 1.67-1 3-2.33 4-4-.52-.7-1.2-1.2-2-1.5 2.47-2.55 3.14-5.39 2-8.5a4.93 4.93 0 0 0 3-.5c-.17-1.57-.5-3.4-1-5.5 2.6-.1 4.6-1.27 6-3.5-3.72-1.37-3.72-3.03 0-5 2.5-.88 4.83-2.05 7-3.5.59.2 1.09.54 1.5 1a12.58 12.58 0 0 0-3.5-6.5c1.83-1.79 3.83-1.95 6-.5a3.1 3.1 0 0 0 1-3c2.33.16 4.5.83 6.5 2l1-3c1.5 1.25 3 1.25 4.5 0 .8-1.44 1.47-2.94 2-4.5-.2-2.26-.54-4.76-1-7.5 4.3.37 8.63.37 13 0 1.31.81 2.48 1.81 3.5 3 1.8-1.27 3.63-1.27 5.5 0 1.88-.6 3.72-1.26 5.5-2 .14-2.79 1.3-5.46 3.5-8a12.75 12.75 0 0 0 7 2.5 14.5 14.5 0 0 0 5 4c-1.21.9-1.21 1.73 0 2.5 3.13-1.27 4.47-3.6 4-7a56 56 0 0 1 8 6c1.4-1.1 2.56-2.44 3.5-4a36.08 36.08 0 0 0 3.5 4.5h4c2.12 3.26 4.28 6.42 6.5 9.5a19.95 19.95 0 0 0 4.5-3c.7 2.17 1.7 4.17 3 6 .95-.83 1.95-1 3-.5.59 1.5 1.26 3 2 4.5.92-1.14 1.76-1.14 2.5 0-.1 3 1.24 5 4 6 .2 1.7.2 3.37 0 5 1.4.55 2.73.88 4 1a13.1 13.1 0 0 1-.5 8.5c1.92-.13 3.92-.3 6-.5-.83 2.97-1 5.97-.5 9a43.06 43.06 0 0 0 4.5 4.5 30.46 30.46 0 0 1-1 7c4.2 5.65 4.87 10.98 2 16 .87 5.37.87 10.53 0 15.5a381.52 381.52 0 0 0-7 11.5c2.63 1.7 2.3 2.86-1 3.5l2 3c-1.9 1.43-2.23 3.1-1 5a3.1 3.1 0 0 1-3 1 4.39 4.39 0 0 0 1 3.5 17.63 17.63 0 0 0-6.5 7.5 3.94 3.94 0 0 0-2-1 7.84 7.84 0 0 1-5.5 2v4a7.11 7.11 0 0 0-5 1c1.24 1.63.74 2.63-1.5 3a30.62 30.62 0 0 1-7-1c-.14 2.02-.3 3.86-.5 5.5-2.36 0-4.69-.5-7-1.5l-2 5c-3.35-2.82-6.19-2.48-8.5 1a11.19 11.19 0 0 0-4.5-1 3.1 3.1 0 0 1-1 3 8.5 8.5 0 0 0-8 0 7.25 7.25 0 0 1-2.5-2 3.63 3.63 0 0 1-2 2c-2.84-1.72-4.84-1.05-6 2a12.4 12.4 0 0 0-2.5-4c-1.03 1.54-2.37 2.04-4 1.5l-6.5-5.5a5.2 5.2 0 0 1-3.5 4Z" style="opacity:.637"/><path fill="#fe0000" d="M429.5 686.5c-.67.67-.67.67 0 0Z" style="opacity:.004"/><path fill="#ff7ef8" d="M2398.5 686.5c1.03.4 1.19 1.06.5 2a2.45 2.45 0 0 1-.5-2Z" style="opacity:.004"/><path fill="#feece0" d="M4774.5 816.5a40.88 40.88 0 0 1-8-9l-4 3a39.55 39.55 0 0 0-6-4.5l1-1-3.5-3.5a4.6 4.6 0 0 1-4.5 2l-3-12a6.85 6.85 0 0 0-4 1c-2.1-1.12-2.43-2.62-1-4.5a20.42 20.42 0 0 1-5.5-1.5 23.23 23.23 0 0 1-1.5-9c.53-.7 1.19-1.2 2-1.5-1.4-.41-2.73-.91-4-1.5-.79-3.2-.12-6.2 2-9-2.78.16-5.78-.17-9-1a20.6 20.6 0 0 0 3-5.5c-3.77-.61-3.77-1.61 0-3-2.39-.7-2.39-1.7 0-3l-3-1c.56-1.57-.11-2.9-2-4 1.7-1.4 2.2-3.24 1.5-5.5l2.5-2.5c-2.41-1.9-2.41-3.9 0-6a9.24 9.24 0 0 0-2-2.5c2.97-1.17 3.3-2.5 1-4 1.67-1 3-2.33 4-4a4.47 4.47 0 0 0-2-1.5c2.47-2.55 3.14-5.39 2-8.5a4.94 4.94 0 0 0 3-.5c-.17-1.57-.5-3.4-1-5.5a7.03 7.03 0 0 0 6-3.5c-3.72-1.37-3.72-3.03 0-5 2.5-.88 4.83-2.05 7-3.5.59.2 1.09.54 1.5 1a12.6 12.6 0 0 0-3.5-6.5c1.83-1.79 3.83-1.95 6-.5a3.08 3.08 0 0 0 1-3c2.33.16 4.49.83 6.5 2l1-3c1.49 1.25 2.99 1.25 4.5 0 .8-1.44 1.47-2.94 2-4.5-.2-2.26-.54-4.76-1-7.5 4.3.37 8.64.37 13 0 1.31.81 2.48 1.81 3.5 3 1.8-1.27 3.63-1.27 5.5 0 1.88-.6 3.72-1.26 5.5-2 .14-2.79 1.31-5.46 3.5-8a12.75 12.75 0 0 0 7 2.5 14.48 14.48 0 0 0 5 4c-1.21.9-1.21 1.73 0 2.5 3.13-1.27 4.47-3.6 4-7a56.05 56.05 0 0 1 8 6 14.86 14.86 0 0 0 3.5-4 36.17 36.17 0 0 0 3.5 4.5h4c2.11 3.26 4.28 6.42 6.5 9.5a19.78 19.78 0 0 0 4.5-3c.7 2.17 1.7 4.17 3 6 .95-.83 1.95-1 3-.5.59 1.5 1.26 3 2 4.5.93-1.14 1.76-1.14 2.5 0-.09 3 1.24 5 4 6 .2 1.7.2 3.37 0 5 1.4.55 2.73.88 4 1 .78 2.93.61 5.76-.5 8.5 1.92-.13 3.92-.3 6-.5a20.6 20.6 0 0 0-.5 9 43.06 43.06 0 0 0 4.5 4.5 30.46 30.46 0 0 1-1 7c4.2 5.65 4.87 10.98 2 16 .87 5.37.87 10.53 0 15.5a381.52 381.52 0 0 0-7 11.5c2.63 1.7 2.3 2.86-1 3.5l2 3c-1.9 1.43-2.23 3.1-1 5a3.09 3.09 0 0 1-3 1 4.38 4.38 0 0 0 1 3.5 17.62 17.62 0 0 0-6.5 7.5 3.95 3.95 0 0 0-2-1 7.84 7.84 0 0 1-5.5 2v4a7.11 7.11 0 0 0-5 1c1.24 1.63.74 2.63-1.5 3a30.63 30.63 0 0 1-7-1c-.14 2.02-.31 3.86-.5 5.5-2.36 0-4.69-.5-7-1.5l-2 5c-3.35-2.82-6.19-2.48-8.5 1a11.19 11.19 0 0 0-4.5-1 3.08 3.08 0 0 1-1 3 8.5 8.5 0 0 0-8 0 7.24 7.24 0 0 1-2.5-2 3.63 3.63 0 0 1-2 2c-2.84-1.72-4.84-1.05-6 2a12.42 12.42 0 0 0-2.5-4c-1.03 1.54-2.37 2.04-4 1.5l-6.5-5.5a5.2 5.2 0 0 1-3.5 4Z" style="opacity:.637"/><path fill="#fe0000" d="M4293.5 689.5c-.67.67-.67.67 0 0Z" style="opacity:.004"/><path fill="#fefffe" d="M2947.5 706.5c1.33.67 1.33.67 0 0Z" style="opacity:.004"/><path d="M2406.5 711.5c1.33.67 1.33.67 0 0Z" style="opacity:.004"/><path fill="#fe0000" d="M2942.5 713.5c1.33.67 1.33.67 0 0Z" style="opacity:.004"/><path fill="#feff00" d="M2526.5 714.5c1.33.67 1.33.67 0 0Z" style="opacity:.004"/><path fill="#fffe7a" d="M2141.5 722.5c1.03.4 1.19 1.06.5 2a2.45 2.45 0 0 1-.5-2Z" style="opacity:.004"/><path fill="#fefffe" d="M3592.5 732.5h1c-.19.67-.52.67-1 0Z" style="opacity:.004"/><path fill="#fe0000" d="M2509.5 733.5c1.33.67 1.33.67 0 0ZM2437.5 736.5c-.67.67-.67.67 0 0ZM2127.5 738.5c1.33.67 1.33.67 0 0Z" style="opacity:.004"/><path fill="#fefffe" d="M1635.5 750.5c-.67.67-.67.67 0 0ZM5499.5 753.5c-.67.67-.67.67 0 0ZM1648.5 760.5c-.67.67-.67.67 0 0ZM5512.5 763.5c-.67.67-.67.67 0 0Z" style="opacity:.004"/><path fill="#fe0000" d="M1678.5 769.5c-.67.67-.67.67 0 0Z" style="opacity:.004"/><path fill="#fffe7a" d="M868.5 771.5c.13.74-.04 1.4-.5 2-.7-.94-.52-1.6.5-2Z" style="opacity:.004"/><path fill="#fe0000" d="M5542.5 772.5c-.67.67-.67.67 0 0Z" style="opacity:.004"/><path fill="#fffe7a" d="M4732.5 774.5c.13.74-.04 1.4-.5 2-.69-.94-.53-1.6.5-2Z" style="opacity:.004"/><path fill="#fefffe" d="M1312.5 797.5c1.33.67 1.33.67 0 0ZM5176.5 800.5c1.33.67 1.33.67 0 0Z" style="opacity:.004"/><path fill="#feff00" d="M910.5 813.5c-.67.67-.67.67 0 0ZM4774.5 816.5c-.67.67-.67.67 0 0Z" style="opacity:.004"/></svg>