<svg width="9" height="15" viewBox="0 0 9 15" fill="none" xmlns="http://www.w3.org/2000/svg">
<path fill-rule="evenodd" clip-rule="evenodd" d="M8.23956 9.51851H6.57426V14.8585H2.44669V9.51851H0.491882V5.58165H2.44669V4.7609C2.44669 3.63188 2.78893 2.64624 3.4899 1.94113C4.19051 1.23637 5.15284 0.90918 6.20305 0.90918C6.67206 0.90918 7.14178 0.955609 7.48522 0.99972C7.65909 1.02205 7.80541 1.04443 7.90923 1.06139C7.96122 1.06989 8.00278 1.07707 8.03207 1.08226L8.06664 1.08848L8.07663 1.09033L8.07973 1.09091L8.08079 1.09111C8.08087 1.09112 8.08154 1.09125 7.91947 1.94788C7.91947 1.94788 7.03742 1.78101 6.20305 1.78101C4.4628 1.78101 3.31852 2.85377 3.31852 4.7609V6.45348H1.36371V8.64668H3.31852V13.9866H5.70243V8.64668H7.49037L7.82411 6.45348H5.70243V5.02313C5.70243 4.40331 5.9885 3.83117 6.94207 3.83117H7.91947V1.94788L8.08079 1.09111L8.7913 1.22553V4.70301H6.94207C6.7894 4.70301 6.70475 4.72602 6.66534 4.74153C6.64595 4.74916 6.63576 4.75561 6.63146 4.75863C6.62727 4.76157 6.62536 4.76356 6.62408 4.76503C6.62079 4.76883 6.57426 4.82999 6.57426 5.02313V5.58165H8.83865L8.23956 9.51851Z" fill="#3F0909"/>
</svg>
