<svg xmlns="http://www.w3.org/2000/svg" width="15" height="15" fill="none" viewBox="0 0 15 15"><path fill="#FAEEE0" d="M7.829 4.288c1.962 0 3.58 1.619 3.58 3.58 0 1.993-1.618 3.581-3.58 3.581a3.561 3.561 0 0 1-3.58-3.58 3.581 3.581 0 0 1 3.58-3.581Zm0 5.915c1.277 0 2.304-1.027 2.304-2.335a2.299 2.299 0 0 0-2.304-2.304c-1.308 0-2.335 1.028-2.335 2.304a2.332 2.332 0 0 0 2.335 2.335Zm4.546-6.04a.837.837 0 0 0-.84-.84.837.837 0 0 0-.841.84c0 .467.373.84.84.84.467 0 .84-.373.84-.84Zm2.366.84c.063 1.153.063 4.609 0 5.761-.062 1.12-.311 2.086-1.12 2.927-.81.81-1.807 1.058-2.928 1.12-1.152.063-4.608.063-5.76 0-1.12-.062-2.086-.31-2.927-1.12-.81-.84-1.058-1.806-1.12-2.927-.063-1.152-.063-4.608 0-5.76.062-1.121.31-2.118 1.12-2.927.841-.81 1.806-1.059 2.927-1.121 1.152-.062 4.608-.062 5.76 0 1.121.062 2.118.311 2.927 1.12.81.81 1.059 1.807 1.121 2.928Zm-1.494 6.975c.373-.903.28-3.082.28-4.11 0-.996.093-3.176-.28-4.11-.25-.591-.716-1.09-1.308-1.308-.934-.373-3.114-.28-4.11-.28-1.028 0-3.207-.093-4.11.28-.623.25-1.09.717-1.339 1.308-.374.934-.28 3.114-.28 4.11 0 1.028-.094 3.207.28 4.11a2.36 2.36 0 0 0 1.339 1.34c.903.373 3.082.28 4.11.28.996 0 3.176.093 4.11-.28.592-.25 1.09-.717 1.308-1.34Z"/></svg>